<?xml version="1.0" encoding="UTF-8"?>
<svg version="1.1" xmlns="http://www.w3.org/2000/svg" width="908" height="995">
<path d="M0 0 C299.64 0 599.28 0 908 0 C908 328.35 908 656.7 908 995 C608.36 995 308.72 995 0 995 C0 666.65 0 338.3 0 0 Z " fill="#FEFEFE" transform="translate(0,0)"/>
<path d="M0 0 C0.33 0 0.66 0 1 0 C1 234.63 1 469.26 1 711 C-244.19 711 -489.38 711 -742 711 C-738.6765922 708.7843948 -736.12907803 708.15662517 -732.25390625 707.22265625 C-730.85826602 706.87749343 -729.46293352 706.53108456 -728.06787109 706.18359375 C-727.33332703 706.0016748 -726.59878296 705.81975586 -725.84197998 705.63232422 C-699.42913753 699.02964403 -671.61087722 690.58239019 -651 672 C-649.88431641 671.02353516 -649.88431641 671.02353516 -648.74609375 670.02734375 C-637.1346947 659.2236942 -629.53839768 644.24071798 -621.63330078 630.65039062 C-612.41252424 614.80052212 -602.18419713 600.42766246 -590.1796875 586.57421875 C-587.92352202 584.00915538 -587.92352202 584.00915538 -586 581 C-585.34 581 -584.68 581 -584 581 C-583.74726318 580.4227417 -583.49452637 579.8454834 -583.23413086 579.25073242 C-581.85027177 576.7269348 -580.28459122 575.02576674 -578.25390625 572.98828125 C-577.50431641 572.23474365 -576.75472656 571.48120605 -575.98242188 570.70483398 C-574.78456055 569.52062866 -574.78456055 569.52062866 -573.5625 568.3125 C-572.74716797 567.50176025 -571.93183594 566.69102051 -571.09179688 565.85571289 C-566.06469098 560.90385412 -560.97630461 556.26189499 -555.4140625 551.91796875 C-552.9541551 549.9635763 -550.67352443 547.89093329 -548.375 545.75 C-543.27448217 541.09689602 -537.82748516 536.96824754 -532.32543945 532.80883789 C-527.27947065 528.99230962 -522.34698086 525.08203171 -517.4765625 521.04296875 C-514.99066241 518.99229723 -512.46868077 516.99438237 -509.9375 515 C-504.76534854 510.87042395 -499.87937854 506.46855937 -495 502 C-493.98381015 501.08771979 -492.9668543 500.17629227 -491.94921875 499.265625 C-487.00423792 494.82146024 -482.16539588 490.37819287 -477.89453125 485.265625 C-476.37853603 483.45268227 -474.83560594 481.68377646 -473.26171875 479.921875 C-466.015274 471.75119852 -459.76405584 463.2702172 -454 454 C-453.57976562 453.33097656 -453.15953125 452.66195313 -452.7265625 451.97265625 C-435.79511428 424.83103168 -426.59785478 394.6644285 -420.84838867 363.37915039 C-419.9462442 358.47942799 -419.01977196 353.58440525 -418.08052063 348.69166565 C-417.52067626 345.77112962 -416.97416229 342.85033585 -416.46826172 339.91992188 C-414.3770136 327.88713541 -410.75012535 321.52996713 -401.640625 313.390625 C-397.96822062 310.08815852 -395.01166573 306.4968823 -392.125 302.5 C-391.67705078 301.8810083 -391.22910156 301.2620166 -390.76757812 300.62426758 C-388.19578088 296.96480645 -385.96058866 293.21598064 -383.85595703 289.27197266 C-374.86365618 272.45560914 -354.69094577 268.29352893 -337.4375 263.0625 C-335.21893797 262.39260633 -333.00018537 261.72334351 -330.78125 261.0546875 C-277.71339319 245.0454755 -220.34608318 220.22763379 -192.73046875 168.8671875 C-188.88114137 161.4583047 -185.55145274 153.96160121 -183 146 C-182.76410156 145.33484375 -182.52820313 144.6696875 -182.28515625 143.984375 C-180.95250364 139.97770703 -180.68554101 137.03100757 -182 133 C-185.44926919 128.78422655 -188.64545659 126.3675266 -194.13476562 125.76611328 C-196.63160142 125.6155121 -199.12484852 125.51515622 -201.625 125.4375 C-203.32565894 125.37749176 -205.02619434 125.31384279 -206.7265625 125.24609375 C-207.84925537 125.21020142 -207.84925537 125.21020142 -208.99462891 125.17358398 C-211 125 -211 125 -214 124 C-213.95875 125.16402344 -213.9175 126.32804687 -213.875 127.52734375 C-213.9130674 149.18293605 -230.36672986 169.54210786 -244.6875 184.125 C-276.26749764 215.47079636 -320.74683792 230.24894597 -362 244 C-359.99185713 236.0079671 -357.42388147 228.36418858 -354.4375 220.6875 C-353.99841309 219.55739502 -353.55932617 218.42729004 -353.10693359 217.26293945 C-340.76274305 185.8607808 -325.00521855 155.95826151 -302 131 C-300.77216797 129.64841797 -300.77216797 129.64841797 -299.51953125 128.26953125 C-288.78963569 116.97951063 -276.10070392 109.35674977 -262 103 C-261.16855469 102.61714844 -260.33710937 102.23429687 -259.48046875 101.83984375 C-252.88708822 99.20983111 -245.98981366 99.73154343 -239 100 C-239 99.01 -239 98.02 -239 97 C-237.515 96.505 -237.515 96.505 -236 96 C-233.77196437 98.08035604 -232.21787238 100.1204942 -230.6875 102.75 C-226.22622126 109.99458399 -221.52860089 115.98870536 -213.08300781 118.59057617 C-210.78330897 119.04259152 -208.64008683 119.14330155 -206.296875 119.17578125 C-205.39839844 119.19962891 -204.49992188 119.22347656 -203.57421875 119.24804688 C-201.70725588 119.29065391 -199.84000135 119.32209914 -197.97265625 119.34179688 C-191.26271761 119.54759385 -185.57547796 120.69545378 -180.51147461 125.37573242 C-175.85812934 130.64517614 -173.6872504 136.52911926 -172 143.25 C-171.65440277 144.58352973 -171.30804753 145.91686324 -170.9609375 147.25 C-170.40059066 149.43671938 -169.84227552 151.62396496 -169.2890625 153.8125 C-166.50666154 164.02554822 -161.95034195 172.97295522 -153 179 C-147.84660636 181.46933445 -142.41083711 182.01299298 -136.921875 180.3828125 C-130.54520886 177.632571 -126.94313926 172.85929048 -123.875 166.765625 C-122.70611395 163.07111015 -122.54031302 159.54135979 -122.375 155.6875 C-122.33632813 154.94693359 -122.29765625 154.20636719 -122.2578125 153.44335938 C-122.16418295 151.62928691 -122.08103149 149.81467884 -122 148 C-122.54527344 147.84144531 -123.09054687 147.68289063 -123.65234375 147.51953125 C-129.42189509 145.7344222 -135.09092743 143.59414242 -140 140 C-140.33 139.01 -140.66 138.02 -141 137 C-136.46916729 135.59188015 -134.32476617 136.46873547 -130.1875 138.625 C-122.69223408 142.2956268 -115.01177131 144.71222457 -107 147 C-106.37230713 147.18103271 -105.74461426 147.36206543 -105.09790039 147.54858398 C-88.48138457 151.12404515 -70.36265463 147.64246317 -56 139 C-53.53832786 137.10541463 -51.29674233 135.0970256 -49 133 C-48.34 133 -47.68 133 -47 133 C-46.731875 132.39800781 -46.46375 131.79601562 -46.1875 131.17578125 C-44.97843581 128.96048929 -43.88414961 127.8316017 -42 126.1875 C-10.94958118 95.84717392 -2.03809719 41.18361914 0 0 Z " fill="#FEFEFE" transform="translate(907,284)"/>
<path d="M0 0 C1.33417969 0.00966797 1.33417969 0.00966797 2.6953125 0.01953125 C3.61570312 0.03628906 4.53609375 0.05304688 5.484375 0.0703125 C6.42023438 0.07933594 7.35609375 0.08835937 8.3203125 0.09765625 C10.62526157 0.12117614 12.9296866 0.15404397 15.234375 0.1953125 C15.70746094 1.39285156 16.18054688 2.59039062 16.66796875 3.82421875 C25.07213439 24.68705907 36.94773265 42.17428817 51.62109375 59.14453125 C54.04926854 61.95568213 56.36191551 64.84851217 58.671875 67.7578125 C62.48339099 72.45206738 66.61129452 76.68881795 70.92236328 80.91503906 C74.3482364 84.27814305 77.54569298 87.75280743 80.6640625 91.3984375 C84.40545221 95.67962971 88.47010698 99.57545674 92.796875 103.2578125 C96.81182368 106.70925961 100.51276523 110.43494618 104.234375 114.1953125 C108.3654035 118.36468126 112.49844956 122.43185079 116.98046875 126.2265625 C120.30874294 129.13375521 123.51288858 132.1707643 126.734375 135.1953125 C131.16491335 139.35015612 135.6103358 143.46329619 140.21484375 147.42578125 C142.92923693 149.8041567 145.58009887 152.25040155 148.234375 154.6953125 C151.53460284 157.73425742 154.84386974 160.75687461 158.234375 163.6953125 C162.11410453 167.05989122 165.89295009 170.53120158 169.671875 174.0078125 C172.84217289 176.92321206 176.02832257 179.81914328 179.234375 182.6953125 C182.96732421 186.04416404 186.66878705 189.42501772 190.359375 192.8203125 C194.25105843 196.39865391 198.18118569 199.92362863 202.17578125 203.38671875 C204.7239415 205.625425 207.22848093 207.90941462 209.734375 210.1953125 C216.90410006 216.72751071 224.23136334 223.06094948 231.60205078 229.36401367 C235.41919817 232.63058179 239.21862705 235.91651738 243.00708008 239.21630859 C255.05425344 249.70132777 267.49039749 259.57416765 280.234375 269.1953125 C280.86891602 269.67790527 281.50345703 270.16049805 282.15722656 270.65771484 C301.26545846 285.16431027 321.98738383 298.06912966 344.234375 307.1953125 C345.24368961 325.27325865 345.24368961 325.27325865 339.234375 333.1953125 C334.61713064 338.22274486 330.30431353 340.94367819 323.421875 341.5078125 C317.34875433 341.30233097 312.34982653 339.50577732 307.734375 335.5078125 C300.16480032 327.29586566 295.96945564 316.00685706 293.87109375 305.234375 C292.09498966 296.7570193 289.26640928 288.23990981 282.171875 282.8828125 C278.48602926 280.76541176 275.80517965 280.07457886 271.62890625 279.984375 C270.72720703 279.95601563 269.82550781 279.92765625 268.89648438 279.8984375 C267.01646134 279.84689472 265.1362279 279.80246917 263.25585938 279.765625 C254.28661315 279.46007225 247.80621846 277.43365228 241.12890625 271.23046875 C237.07790177 266.87877116 233.39734451 262.11709979 232.234375 256.1953125 C230.584375 256.1953125 228.934375 256.1953125 227.234375 256.1953125 C227.234375 257.1853125 227.234375 258.1753125 227.234375 259.1953125 C226.409375 259.19789063 225.584375 259.20046875 224.734375 259.203125 C203.4668824 259.91520623 185.53406025 271.10391009 170.234375 285.1953125 C169.43386719 285.92492187 168.63335938 286.65453125 167.80859375 287.40625 C151.93907591 302.57108232 140.4203416 321.95135547 130.234375 341.1953125 C129.87601563 341.87207031 129.51765625 342.54882812 129.1484375 343.24609375 C119.384383 361.85652846 112.18065095 381.39212007 105.234375 401.1953125 C111.1648843 399.79674245 116.9339469 397.79689544 122.734375 395.9453125 C123.95125 395.56246094 125.168125 395.17960937 126.421875 394.78515625 C134.21484805 392.2957343 141.7346363 389.45704799 149.234375 386.1953125 C150.23082031 385.77282227 151.22726562 385.35033203 152.25390625 384.91503906 C191.62875507 368.20712908 230.26747006 345.24908952 247.47265625 304.12402344 C250.18976274 297.24417046 251.37710721 290.49367338 252.234375 283.1953125 C255.73554343 283.24770357 259.23434097 283.3428942 262.734375 283.4453125 C263.71664062 283.45949219 264.69890625 283.47367187 265.7109375 283.48828125 C272.00222535 283.69799085 277.00166864 284.532338 282.234375 288.1953125 C285.37767488 291.56860993 286.234375 293.19610487 286.234375 297.8203125 C279.34927864 333.24847825 251.90975182 362.66948202 223.28515625 382.5234375 C193.83555935 402.32919807 160.42457523 414.58193419 126.45581055 424.12231445 C119.37329304 426.11759336 112.51891321 428.49496584 105.671875 431.1953125 C104.85033936 431.51564453 104.02880371 431.83597656 103.18237305 432.16601562 C94.86363231 435.53193095 88.46849821 438.44294447 84.296875 446.7578125 C78.38929859 457.93932654 70.37952338 469.88200472 60.2890625 477.703125 C49.0312037 486.62168847 48.92256304 508.89076028 46.45800781 522.28930664 C37.16677133 572.73392047 17.53928459 613.95030773 -17.453125 651.5703125 C-18.05842041 652.22410889 -18.66371582 652.87790527 -19.28735352 653.55151367 C-23.53891936 658.07373317 -28.04386701 662.17147102 -32.765625 666.1953125 C-33.90723806 667.19157725 -35.04790948 668.18892236 -36.1875 669.1875 C-42.52276035 674.6905068 -48.94781251 679.94388696 -55.70703125 684.92578125 C-68.85074564 694.67865234 -81.41426845 705.14872513 -93.515625 716.1640625 C-95.50778976 717.96254458 -97.53342011 719.70731335 -99.578125 721.4453125 C-108.3765303 729.1394645 -116.48273045 737.49977711 -123.73046875 746.66796875 C-125.61506345 749.00833876 -127.5885942 751.18983413 -129.640625 753.3828125 C-141.3172031 766.42358487 -149.969601 782.34235016 -158.80859375 797.359375 C-183.34088856 838.93683569 -217.32768076 855.46126128 -262.93234915 867.40993583 C-279.4823205 871.54867205 -295.8770987 871.49201524 -312.83550096 871.20925188 C-317.36083997 871.14511343 -321.88630964 871.14074093 -326.41203308 871.1289978 C-334.91481667 871.09837843 -343.41625619 871.01697313 -351.91845769 870.91550291 C-361.62631468 870.80225287 -371.33424894 870.74838287 -381.042606 870.69854856 C-400.95101845 870.59507489 -420.85823585 870.42012449 -440.765625 870.1953125 C-440.84172925 863.1661676 -440.89424773 856.13712908 -440.93041992 849.10766602 C-440.94550043 846.7166751 -440.96596777 844.32571182 -440.99194336 841.93481445 C-441.02835806 838.49683815 -441.04535899 835.05922781 -441.05859375 831.62109375 C-441.07407761 830.55321121 -441.08956146 829.48532867 -441.10551453 828.38508606 C-441.10754155 819.43351198 -441.10754155 819.43351198 -437.765625 815.1953125 C-437.600625 814.4940625 -437.435625 813.7928125 -437.265625 813.0703125 C-436.765625 811.1953125 -436.765625 811.1953125 -435.51953125 810.0078125 C-432.99470329 807.39863617 -431.16458902 804.35796109 -429.203125 801.3203125 C-424.39185812 793.99206901 -419.22190052 787.05240677 -413.765625 780.1953125 C-413.13164795 779.38876221 -413.13164795 779.38876221 -412.48486328 778.56591797 C-407.02672151 771.62696586 -407.02672151 771.62696586 -404.765625 769.1953125 C-404.105625 769.1953125 -403.445625 769.1953125 -402.765625 769.1953125 C-402.49500244 768.59710693 -402.22437988 767.99890137 -401.94555664 767.38256836 C-400.77512956 765.21293124 -399.66508748 763.88370805 -397.88671875 762.19921875 C-397.3040625 761.64717773 -396.72140625 761.09513672 -396.12109375 760.52636719 C-395.17169922 759.65093262 -395.17169922 759.65093262 -394.203125 758.7578125 C-393.54054688 758.14454102 -392.87796875 757.53126953 -392.1953125 756.89941406 C-384.77738698 750.14355572 -376.90193346 744.05657644 -368.765625 738.1953125 C-368.1581543 737.75767578 -367.55068359 737.32003906 -366.92480469 736.86914062 C-348.64656745 723.87263473 -328.32512738 713.41196762 -308.265625 703.4453125 C-262.97140834 680.9398194 -221.30842191 655.03335509 -204.078125 604.5703125 C-201.02882979 595.23015337 -199.0054665 585.65277557 -196.890625 576.0703125 C-189.04791668 540.56381106 -175.80405743 508.28435453 -153.765625 479.1953125 C-153.03085937 478.19371094 -152.29609375 477.19210937 -151.5390625 476.16015625 C-143.14384866 464.8333907 -133.45679709 454.5892368 -123.31640625 444.80859375 C-121.66927212 443.1721608 -121.66927212 443.1721608 -120.18359375 440.98828125 C-119.71566406 440.39660156 -119.24773437 439.80492187 -118.765625 439.1953125 C-118.105625 439.1953125 -117.445625 439.1953125 -116.765625 439.1953125 C-116.765625 438.5353125 -116.765625 437.8753125 -116.765625 437.1953125 C-115.5078125 435.9609375 -115.5078125 435.9609375 -113.640625 434.4453125 C-108.83220942 430.37270429 -104.44602477 425.93419648 -100.04248047 421.43457031 C-97.18324493 418.53380215 -94.29065903 415.74934796 -91.19140625 413.10546875 C-85.4728594 408.16315786 -80.15392507 402.80683661 -74.8034668 397.47338867 C-72.97438439 395.65395969 -71.13487311 393.84553689 -69.29492188 392.03710938 C-41.01619353 364.00889211 -20.91864499 330.12793331 -20.58496094 289.43286133 C-20.56925882 281.42197724 -20.6507527 273.54541933 -21.54516602 265.58007812 C-21.91518529 261.57747762 -21.87155961 257.58634306 -21.828125 253.5703125 C-21.82361328 252.75691406 -21.81910156 251.94351563 -21.81445312 251.10546875 C-21.80286439 249.13538352 -21.78493897 247.16533714 -21.765625 245.1953125 C-25.98127109 246.10926118 -30.19452782 247.03338926 -34.40600586 247.96630859 C-35.83380109 248.28117138 -37.26217478 248.59342449 -38.69116211 248.90283203 C-59.2866143 253.36722679 -79.51230861 260.18917456 -91.640625 278.6953125 C-92.70497155 280.51557264 -93.74821628 282.34840696 -94.765625 284.1953125 C-95.20261719 284.9378125 -95.63960938 285.6803125 -96.08984375 286.4453125 C-107.77326404 307.67449259 -110.14059561 334.25526964 -114.0390625 357.828125 C-117.91856697 381.10837938 -123.54460376 403.82870448 -133.765625 425.1953125 C-134.2287207 426.18096191 -134.2287207 426.18096191 -134.70117188 427.18652344 C-144.23151403 447.18412299 -159.16842286 464.83685248 -176.765625 478.1953125 C-177.55582031 478.824375 -178.34601563 479.4534375 -179.16015625 480.1015625 C-191.17033785 489.33143434 -204.83967777 496.80793077 -218.80297852 502.61572266 C-227.41461731 506.22758178 -235.57376538 510.72933975 -243.765625 515.1953125 C-244.40773926 515.54207031 -245.04985352 515.88882813 -245.71142578 516.24609375 C-259.67072736 523.81570692 -272.78210154 532.76717261 -284.765625 543.1953125 C-285.76335937 544.05898438 -286.76109375 544.92265625 -287.7890625 545.8125 C-297.59850619 554.46080696 -305.54350621 564.29707018 -312.765625 575.1953125 C-313.68601562 576.55269531 -313.68601562 576.55269531 -314.625 577.9375 C-328.36150432 599.09171666 -335.66023537 623.51842164 -343.765625 647.1953125 C-369.93757314 723.64327793 -369.93757314 723.64327793 -391.765625 738.1953125 C-390.42755534 735.41421894 -388.94730488 732.83020125 -387.26171875 730.24609375 C-368.04462643 700.51123907 -356.79219221 668.99038765 -346.765625 635.1328125 C-336.12325285 599.25174618 -336.12325285 599.25174618 -327.765625 583.1953125 C-327.14494882 581.94965909 -326.52518491 580.70355077 -325.90625 579.45703125 C-321.33604359 570.41361119 -315.92211774 562.23234285 -309.765625 554.1953125 C-309.03472656 553.23882813 -308.30382812 552.28234375 -307.55078125 551.296875 C-295.94857349 536.65249704 -282.02725459 524.8925285 -266.765625 514.1953125 C-265.18974609 513.07382813 -265.18974609 513.07382813 -263.58203125 511.9296875 C-250.64510741 502.90448478 -236.59402641 495.6880881 -222.5625 488.53125 C-206.83748944 480.48908435 -192.91909331 470.98679047 -179.765625 459.1953125 C-179.11464844 458.628125 -178.46367187 458.0609375 -177.79296875 457.4765625 C-164.45728033 445.11819403 -155.01809051 427.62646742 -148.515625 410.8828125 C-148.21052002 410.10276855 -147.90541504 409.32272461 -147.59106445 408.51904297 C-141.82594655 392.96989223 -138.84833475 376.99742181 -136.62567139 360.61782837 C-136.04844824 356.36936428 -135.44414467 352.12487338 -134.8416748 347.87992859 C-134.40519997 344.80180092 -133.97231373 341.7231826 -133.53955078 338.64453125 C-128.38448218 302.16178399 -122.27312769 264.70975233 -91.22436523 241.01586914 C-73.10737663 227.78956539 -43.17797577 215.1953125 -20.765625 215.1953125 C-20.73984375 214.12796875 -20.7140625 213.060625 -20.6875 211.9609375 C-19.80388573 185.96376444 -12.62589249 160.73452777 -1.765625 137.1953125 C-1.44335938 136.49035645 -1.12109375 135.78540039 -0.7890625 135.05908203 C5.98964833 120.39598651 14.69031187 107.43074412 25.234375 95.1953125 C26.0821446 94.14436939 26.92845493 93.09224775 27.7734375 92.0390625 C28.63407052 91.00668881 29.49601809 89.97540933 30.359375 88.9453125 C31.12507813 88.01203125 31.89078125 87.07875 32.6796875 86.1171875 C35.234375 84.1953125 35.234375 84.1953125 38.8671875 84.33203125 C41.80471223 85.08515534 44.44315615 86.03230465 47.234375 87.1953125 C48.224375 87.1953125 49.214375 87.1953125 50.234375 87.1953125 C49.574375 86.7415625 48.914375 86.2878125 48.234375 85.8203125 C47.574375 85.2840625 46.914375 84.7478125 46.234375 84.1953125 C46.234375 83.5353125 46.234375 82.8753125 46.234375 82.1953125 C45.12320312 81.83179688 44.01203125 81.46828125 42.8671875 81.09375 C20.68507412 73.66977683 20.68507412 73.66977683 14.234375 64.1953125 C12.50219658 60.59471691 11.82142462 57.11046351 11.24755859 53.16772461 C9.35111518 40.22670181 5.37228772 33.58213121 -4.765625 25.1953125 C-9.54710978 20.72566368 -12.87296782 17.35701379 -13.203125 10.6328125 C-13.09142185 7.43065564 -12.9351574 6.43144691 -11.015625 3.7578125 C-7.24329865 1.13814143 -4.63932048 -0.05947847 0 0 Z " fill="#FDFEFE" transform="translate(440.765625,124.8046875)"/>
<path d="M0 0 C2.74094673 0.00084131 5.48189261 0.00016701 8.22283936 -0.0004425 C14.10049778 -0.00096417 19.97814502 0.00214504 25.85580063 0.00779533 C34.35366427 0.01595911 42.85152255 0.01853053 51.34938969 0.01978333 C65.14015608 0.02196621 78.93091652 0.02860553 92.72167969 0.03808594 C106.10970022 0.04727985 119.49771913 0.05435098 132.88574219 0.05859375 C133.71244883 0.05885647 134.53915547 0.0591192 135.39091383 0.05938988 C139.53869675 0.06069502 143.68647967 0.0619587 147.83426261 0.06320179 C182.18655045 0.07355062 216.53883122 0.09114808 250.89111328 0.11352539 C250.93700081 35.91896183 250.97218817 71.72439306 250.99324394 107.5298529 C250.99574503 111.76754196 250.9983337 116.00523095 251.00097656 120.24291992 C251.00176349 121.50826557 251.00176349 121.50826557 251.00256632 122.79917376 C251.01124296 136.41575814 251.02699765 150.03232545 251.04541887 163.64889975 C251.06419453 177.64533851 251.07524612 191.6417684 251.07929027 205.63821924 C251.08201952 214.25832332 251.0906047 222.87837912 251.10694622 231.49846832 C251.11760799 237.42855605 251.12069338 243.35861921 251.11811604 249.28871579 C251.11684885 252.69799136 251.11977039 256.10711648 251.12952423 259.51638794 C251.17207604 275.17084607 250.65899661 290.5542102 248.89111328 306.11352539 C248.75931231 307.32062983 248.62751133 308.52773426 248.49171638 309.77141762 C247.20887737 321.20099745 245.2108859 332.09278364 241.89111328 343.11352539 C241.46418128 344.6545146 241.03985173 346.19622641 240.61767578 347.73852539 C234.33992442 370.22416812 225.1906065 391.27995462 209.89111328 409.11352539 C209.34068359 409.80833008 208.79025391 410.50313477 208.22314453 411.21899414 C198.81578298 422.77150227 184.69646145 431.13134695 169.89111328 433.11352539 C156.9637251 434.04696431 145.08430902 433.76882895 132.89111328 429.11352539 C131.90240234 428.78610352 130.91369141 428.45868164 129.89501953 428.12133789 C114.59544164 422.78110306 100.07580379 414.45122397 86.89111328 405.11352539 C85.61948833 404.24887451 84.34591655 403.38708247 83.07080078 402.52758789 C61.50032197 387.95105607 41.58595277 371.19103366 22.06298828 354.00415039 C20.29078406 352.46144024 18.50887429 350.93273954 16.71923828 349.41040039 C10.37894668 344.01420161 4.11954315 338.55888149 -1.99291992 332.90527344 C-4.64355547 330.45378006 -7.31480414 328.03693392 -10.04638672 325.67602539 C-14.23076377 322.05073003 -18.27486042 318.27838104 -22.33349609 314.51391602 C-25.2024438 311.8577292 -28.08513809 309.22970431 -31.04638672 306.67602539 C-34.8210334 303.41428187 -38.46177444 300.01612785 -42.10888672 296.61352539 C-46.37295917 292.6356248 -50.66079443 288.70727234 -55.07763672 284.89868164 C-57.67131528 282.61923721 -60.19952306 280.27082356 -62.73388672 277.92602539 C-67.18346557 273.81241186 -71.73491123 269.84214833 -76.35888672 265.92602539 C-80.89060671 262.08423465 -85.20413122 258.14769195 -89.34716797 253.88305664 C-91.06078012 252.16184532 -92.82967131 250.5710655 -94.67138672 248.98852539 C-107.0250783 238.33857448 -118.60060899 226.80830726 -130.12695312 215.28076172 C-132.4970393 212.91288508 -134.87506518 210.55317341 -137.25341797 208.19360352 C-144.30225066 201.17010169 -151.22798664 194.21522398 -157.33862305 186.34521484 C-159.2506212 183.93484729 -161.3023131 181.71773277 -163.42138672 179.48852539 C-183.5188437 157.35677084 -200.67221192 128.10457228 -200.31591797 97.62524414 C-199.38961315 81.91301711 -190.33088472 66.76003631 -179.10888672 56.11352539 C-178.36638672 55.35040039 -177.62388672 54.58727539 -176.85888672 53.80102539 C-175.95138672 52.91415039 -175.04388672 52.02727539 -174.10888672 51.11352539 C-173.54169922 50.55020508 -172.97451172 49.98688477 -172.39013672 49.40649414 C-160.81610899 38.47794104 -146.50332458 30.68176341 -132.10888672 24.11352539 C-131.0311499 23.6170752 -131.0311499 23.6170752 -129.93164062 23.1105957 C-101.76921036 10.28438536 -71.78405689 4.1503177 -41.10888672 1.11352539 C-40.22784208 1.02402398 -39.34679745 0.93452257 -38.43905449 0.842309 C-25.65061006 -0.25875134 -12.82446989 -0.01853706 0 0 Z " fill="#56B4D6" transform="translate(657.10888671875,-0.113525390625)"/>
<path d="M0 0 C4.0344282 1.08553471 7.75217382 2.41819896 11.5625 4.1171875 C12.60978271 4.5797998 12.60978271 4.5797998 13.67822266 5.05175781 C20.39481741 8.1301321 26.52532703 11.74892804 30.6875 17.9921875 C29.85347656 18.68183594 29.01945312 19.37148437 28.16015625 20.08203125 C-0.34351964 43.79967388 -22.3393674 78.35198389 -26.3125 115.9921875 C-16.94123377 110.07807053 -7.75346111 104.20734727 0.6875 96.9921875 C1.368125 96.44433594 2.04875 95.89648438 2.75 95.33203125 C8.54822827 90.54169813 13.09598279 84.92323345 17.6875 78.9921875 C18.36941406 78.13753906 19.05132812 77.28289062 19.75390625 76.40234375 C29.3210746 63.95191918 34.85075489 49.7955589 39.6875 34.9921875 C41.71126565 38.02783597 42.7221128 40.68979561 43.9375 44.1171875 C48.19552082 55.33039189 53.56177829 62.95912292 64.6875 67.9921875 C48.15157609 104.98043835 15.42354521 130.11683282 -20.3125 146.9921875 C-21.26640625 147.44722656 -22.2203125 147.90226563 -23.203125 148.37109375 C-28.86541812 150.9921875 -28.86541812 150.9921875 -32.3125 150.9921875 C-32.28220703 151.79398438 -32.25191406 152.59578125 -32.22070312 153.421875 C-30.12009879 210.42904502 -32.10695051 260.21942152 -73.125 304.4921875 C-73.95644531 305.36875 -74.78789062 306.2453125 -75.64453125 307.1484375 C-77.70126552 309.34068135 -79.66431794 311.55811662 -81.6171875 313.83984375 C-85.37005082 318.15077825 -89.43562186 322.04753042 -93.625 325.9296875 C-94.37410645 326.62843994 -95.12321289 327.32719238 -95.89501953 328.04711914 C-98.0294282 330.03401676 -100.16952127 332.01454087 -102.3125 333.9921875 C-103.09391357 334.71535156 -103.09391357 334.71535156 -103.89111328 335.453125 C-108.32609609 339.54646635 -112.85988631 343.4596504 -117.5625 347.2421875 C-123.31476701 351.89295657 -128.67839985 356.90819507 -134.0703125 361.96484375 C-138.56328879 366.17587213 -143.11293738 370.30415107 -148 374.0546875 C-150.30320063 375.98439614 -152.06564555 378.08986943 -153.9375 380.4296875 C-155.40736738 382.09999134 -156.96905738 383.45560963 -158.6875 384.8671875 C-162.69776157 388.21480928 -165.95164153 392.00651189 -169.3125 395.9921875 C-170.12589844 396.91773438 -170.93929688 397.84328125 -171.77734375 398.796875 C-187.20508872 416.44991091 -200.2371632 436.33856323 -209.3125 457.9921875 C-209.59158203 458.65250977 -209.87066406 459.31283203 -210.15820312 459.99316406 C-214.5319995 470.54905758 -217.54244749 481.36208671 -220.3125 492.4296875 C-228.28831243 524.25862839 -240.09905493 551.55318285 -262.3125 575.9921875 C-263.21548828 577.00345703 -263.21548828 577.00345703 -264.13671875 578.03515625 C-284.11907045 599.22550906 -313.3178792 613.32669427 -339.7265625 624.47265625 C-369.4602562 637.07222798 -399.46495625 652.11254609 -424.3125 672.9921875 C-425.34984485 673.84425617 -426.38763121 674.69578754 -427.42578125 675.546875 C-438.55434686 684.73609774 -448.33358946 694.65608803 -457.3125 705.9921875 C-458.32881425 707.22509331 -459.34872686 708.45505905 -460.375 709.6796875 C-461.014375 710.4428125 -461.65375 711.2059375 -462.3125 711.9921875 C-462.3125 707.94869875 -460.29460665 706.01360508 -457.875 702.9921875 C-457.42705078 702.42346924 -456.97910156 701.85475098 -456.51757812 701.26879883 C-455.58584379 700.0898797 -454.65040449 698.91388 -453.71142578 697.74072266 C-452.3703204 696.06445796 -451.04187083 694.37882274 -449.71484375 692.69140625 C-445.14798634 686.96612648 -445.14798634 686.96612648 -443.3125 684.9921875 C-442.6525 684.9921875 -441.9925 684.9921875 -441.3125 684.9921875 C-441.04187744 684.39398193 -440.77125488 683.79577637 -440.49243164 683.17944336 C-439.32200456 681.00980624 -438.21196248 679.68058305 -436.43359375 677.99609375 C-435.8509375 677.44405273 -435.26828125 676.89201172 -434.66796875 676.32324219 C-434.03503906 675.73961914 -433.40210938 675.15599609 -432.75 674.5546875 C-431.75613281 673.63478027 -431.75613281 673.63478027 -430.7421875 672.69628906 C-423.32426198 665.94043072 -415.44880846 659.85345144 -407.3125 653.9921875 C-406.40129395 653.33573242 -406.40129395 653.33573242 -405.47167969 652.66601562 C-387.19344245 639.66950973 -366.87200238 629.20884262 -346.8125 619.2421875 C-301.51828334 596.7366944 -259.85529691 570.83023009 -242.625 520.3671875 C-239.57570479 511.02702837 -237.5523415 501.44965057 -235.4375 491.8671875 C-227.59479168 456.36068606 -214.35093243 424.08122953 -192.3125 394.9921875 C-191.57773437 393.99058594 -190.84296875 392.98898437 -190.0859375 391.95703125 C-181.69072366 380.6302657 -172.00367209 370.3861118 -161.86328125 360.60546875 C-160.21614712 358.9690358 -160.21614712 358.9690358 -158.73046875 356.78515625 C-158.26253906 356.19347656 -157.79460937 355.60179687 -157.3125 354.9921875 C-156.6525 354.9921875 -155.9925 354.9921875 -155.3125 354.9921875 C-155.3125 354.3321875 -155.3125 353.6721875 -155.3125 352.9921875 C-154.0546875 351.7578125 -154.0546875 351.7578125 -152.1875 350.2421875 C-147.37908442 346.16957929 -142.99289977 341.73107148 -138.58935547 337.23144531 C-135.73011993 334.33067715 -132.83753403 331.54622296 -129.73828125 328.90234375 C-124.0197344 323.96003286 -118.70080007 318.60371161 -113.3503418 313.27026367 C-111.52125939 311.45083469 -109.68174811 309.64241189 -107.84179688 307.83398438 C-79.56306853 279.80576711 -59.46551999 245.92480831 -59.13183594 205.22973633 C-59.11613382 197.21885224 -59.1976277 189.34229433 -60.09204102 181.37695312 C-60.46206029 177.37435262 -60.41843461 173.38321806 -60.375 169.3671875 C-60.37048828 168.55378906 -60.36597656 167.74039063 -60.36132812 166.90234375 C-60.34973939 164.93225852 -60.33181397 162.96221214 -60.3125 160.9921875 C-64.52814609 161.90613618 -68.74140282 162.83026426 -72.95288086 163.76318359 C-74.38067609 164.07804638 -75.80904978 164.39029949 -77.23803711 164.69970703 C-97.8334893 169.16410179 -118.05918361 175.98604956 -130.1875 194.4921875 C-131.25184655 196.31244764 -132.29509128 198.14528196 -133.3125 199.9921875 C-133.74949219 200.7346875 -134.18648438 201.4771875 -134.63671875 202.2421875 C-146.32013904 223.47136759 -148.68747061 250.05214464 -152.5859375 273.625 C-156.46544197 296.90525438 -162.09147876 319.62557948 -172.3125 340.9921875 C-172.7755957 341.97783691 -172.7755957 341.97783691 -173.24804688 342.98339844 C-182.77838903 362.98099799 -197.71529786 380.63372748 -215.3125 393.9921875 C-216.10269531 394.62125 -216.89289063 395.2503125 -217.70703125 395.8984375 C-229.71721285 405.12830934 -243.38655277 412.60480577 -257.34985352 418.41259766 C-265.96149231 422.02445678 -274.12064038 426.52621475 -282.3125 430.9921875 C-282.95461426 431.33894531 -283.59672852 431.68570312 -284.25830078 432.04296875 C-298.21760236 439.61258192 -311.32897654 448.56404761 -323.3125 458.9921875 C-324.31023437 459.85585938 -325.30796875 460.71953125 -326.3359375 461.609375 C-336.14538119 470.25768196 -344.09038121 480.09394518 -351.3125 490.9921875 C-352.23289062 492.34957031 -352.23289062 492.34957031 -353.171875 493.734375 C-366.90837932 514.88859166 -374.20711037 539.31529664 -382.3125 562.9921875 C-408.48444814 639.44015293 -408.48444814 639.44015293 -430.3125 653.9921875 C-428.97443034 651.21109394 -427.49417988 648.62707625 -425.80859375 646.04296875 C-406.59150143 616.30811407 -395.33906721 584.78726265 -385.3125 550.9296875 C-374.67012785 515.04862118 -374.67012785 515.04862118 -366.3125 498.9921875 C-365.69182382 497.74653409 -365.07205991 496.50042577 -364.453125 495.25390625 C-359.88291859 486.21048619 -354.46899274 478.02921785 -348.3125 469.9921875 C-347.21615234 468.55746094 -347.21615234 468.55746094 -346.09765625 467.09375 C-334.49544849 452.44937204 -320.57412959 440.6894035 -305.3125 429.9921875 C-304.26191406 429.24453125 -303.21132813 428.496875 -302.12890625 427.7265625 C-289.19198241 418.70135978 -275.14090141 411.4849631 -261.109375 404.328125 C-245.38436444 396.28595935 -231.46596831 386.78366547 -218.3125 374.9921875 C-217.33603516 374.14140625 -217.33603516 374.14140625 -216.33984375 373.2734375 C-203.00415533 360.91506903 -193.56496551 343.42334242 -187.0625 326.6796875 C-186.75739502 325.89964355 -186.45229004 325.11959961 -186.13793945 324.31591797 C-180.37282155 308.76676723 -177.39520975 292.79429681 -175.17254639 276.41470337 C-174.59532324 272.16623928 -173.99101967 267.92174838 -173.3885498 263.67680359 C-172.95207497 260.59867592 -172.51918873 257.5200576 -172.08642578 254.44140625 C-166.93135718 217.95865899 -160.82000269 180.50662733 -129.77124023 156.81274414 C-111.65425163 143.58644039 -81.72485077 130.9921875 -59.3125 130.9921875 C-59.28671875 129.92484375 -59.2609375 128.8575 -59.234375 127.7578125 C-58.35076073 101.76063944 -51.17276749 76.53140277 -40.3125 52.9921875 C-39.99023438 52.28723145 -39.66796875 51.58227539 -39.3359375 50.85595703 C-32.55722667 36.19286151 -23.85656313 23.22761912 -13.3125 10.9921875 C-12.4647304 9.94124439 -11.61842007 8.88912275 -10.7734375 7.8359375 C-9.91280448 6.80356381 -9.05085691 5.77228433 -8.1875 4.7421875 C-7.42179687 3.80890625 -6.65609375 2.875625 -5.8671875 1.9140625 C-3.3125 -0.0078125 -3.3125 -0.0078125 0 0 Z " fill="#58B5D6" transform="translate(479.3125,209.0078125)"/>
<path d="M0 0 C4.28225175 4.81035787 7.02246211 10.84302026 9.75 16.625 C10.04366455 17.24592529 10.3373291 17.86685059 10.63989258 18.5065918 C12.5202943 22.61477215 13.85841288 26.64630009 15 31 C13.43765625 31.20302734 13.43765625 31.20302734 11.84375 31.41015625 C-17.56509639 35.65787013 -40.61678036 54.04446715 -58.27734375 77.30859375 C-66.92863624 88.93482447 -74.22509327 101.20042788 -81 114 C-81.35835937 114.67675781 -81.71671875 115.35351562 -82.0859375 116.05078125 C-91.849992 134.66121596 -99.05372405 154.19680757 -106 174 C-100.0694907 172.60142995 -94.3004281 170.60158294 -88.5 168.75 C-87.283125 168.36714844 -86.06625 167.98429688 -84.8125 167.58984375 C-77.01952695 165.1004218 -69.4997387 162.26173549 -62 159 C-61.00355469 158.57750977 -60.00710938 158.15501953 -58.98046875 157.71972656 C-19.60561993 141.01181658 19.03309506 118.05377702 36.23828125 76.92871094 C38.95538774 70.04885796 40.14273221 63.29836088 41 56 C44.50116843 56.05239107 47.99996597 56.1475817 51.5 56.25 C52.97339844 56.27126953 52.97339844 56.27126953 54.4765625 56.29296875 C60.76785035 56.50267835 65.76729364 57.3370255 71 61 C74.14329988 64.37329743 75 66.00079237 75 70.625 C68.11490364 106.05316575 40.67537682 135.47416952 12.05078125 155.328125 C-17.39881565 175.13388557 -50.80979977 187.38662169 -84.77856445 196.92700195 C-91.86108196 198.92228086 -98.71546179 201.29965334 -105.5625 204 C-106.38403564 204.32033203 -107.20557129 204.64066406 -108.05200195 204.97070312 C-116.37074269 208.33661845 -122.76587679 211.24763197 -126.9375 219.5625 C-132.84507641 230.74401404 -140.85485162 242.68669222 -150.9453125 250.5078125 C-162.2031713 259.42637597 -162.31181196 281.69544778 -164.77636719 295.09399414 C-174.06760367 345.53860797 -193.69509041 386.75499523 -228.6875 424.375 C-229.59544312 425.35569458 -229.59544312 425.35569458 -230.52172852 426.35620117 C-234.77329436 430.87842067 -239.27824201 434.97615852 -244 439 C-245.14161306 439.99626475 -246.28228448 440.99360986 -247.421875 441.9921875 C-253.75713535 447.4951943 -260.18218751 452.74857446 -266.94140625 457.73046875 C-280.08512064 467.48333984 -292.64864345 477.95341263 -304.75 488.96875 C-306.74216476 490.76723208 -308.76779511 492.51200085 -310.8125 494.25 C-319.6109053 501.944152 -327.71710545 510.30446461 -334.96484375 519.47265625 C-336.84943845 521.81302626 -338.8229692 523.99452163 -340.875 526.1875 C-352.5515781 539.22827237 -361.203976 555.14703766 -370.04296875 570.1640625 C-393.87100728 610.54794599 -425.36319205 626.52613088 -469.5 638.5 C-470.32785004 638.72572693 -471.15570007 638.95145386 -472.00863647 639.184021 C-474.38896633 639.82924899 -476.77183109 640.46381859 -479.15625 641.09375 C-479.87315506 641.28707916 -480.59006012 641.48040833 -481.32868958 641.67959595 C-484.96358331 642.62265737 -488.24101777 643.22283568 -492 643 C-488.97991186 640.98660791 -486.66555829 640.17453832 -483.20703125 639.15234375 C-482.03100342 638.79906006 -480.85497559 638.44577637 -479.64331055 638.08178711 C-477.74705933 637.51536499 -477.74705933 637.51536499 -475.8125 636.9375 C-456.5897448 631.09569861 -437.67334578 624.67383137 -420 615 C-419.07316406 614.49984375 -418.14632812 613.9996875 -417.19140625 613.484375 C-395.24439483 601.02148552 -384.17118569 580.49388069 -372.92456055 558.93310547 C-363.37630667 540.66547917 -352.11523805 523.49362754 -338.546875 507.94921875 C-336.29084548 505.33679193 -334.17637681 502.66440109 -332.0625 499.9375 C-327.27187464 494.03728127 -321.9175258 488.69864049 -316.5625 483.3125 C-315.66088135 482.40169678 -314.7592627 481.49089355 -313.83032227 480.55249023 C-312.98010498 479.70630127 -312.1298877 478.8601123 -311.25390625 477.98828125 C-310.48377197 477.22040283 -309.7136377 476.45252441 -308.92016602 475.66137695 C-307 474 -307 474 -305 474 C-304.67 473.01 -304.34 472.02 -304 471 C-302.64453125 469.59765625 -302.64453125 469.59765625 -300.8125 468.0625 C-300.08933594 467.44890625 -299.36617187 466.8353125 -298.62109375 466.203125 C-297.75613281 465.47609375 -296.89117187 464.7490625 -296 464 C-294.37851214 462.61297544 -292.76049671 461.22195648 -291.14233398 459.83105469 C-286.88136565 456.16988284 -282.61067016 452.52008537 -278.3359375 448.875 C-272.20767177 443.64387722 -266.12877879 438.37780798 -260.18359375 432.9375 C-258.67469317 431.59865441 -257.12109347 430.30913211 -255.53515625 429.0625 C-225.33067524 404.48936291 -201.72745775 364.37639888 -193.125 326.5625 C-192.75145386 324.94106079 -192.75145386 324.94106079 -192.37036133 323.28686523 C-189.75109194 311.52268344 -187.81526927 299.64448513 -185.91650391 287.74633789 C-185.73461769 286.60986816 -185.73461769 286.60986816 -185.54905701 285.45043945 C-185.32159071 284.02224439 -185.09672594 282.59363171 -184.87489319 281.16455078 C-184.4263658 278.33100181 -183.90965975 275.72897925 -183 273 C-183.78947021 273.27674561 -184.57894043 273.55349121 -185.39233398 273.83862305 C-189.07255667 275.12591066 -192.75462277 276.40783306 -196.4375 277.6875 C-197.10204193 277.91886658 -197.76658386 278.15023315 -198.45126343 278.38861084 C-206.01750414 281.01822563 -213.57539479 283.53801767 -221.3125 285.625 C-241.70517012 291.29355657 -257.30427436 303.09968055 -267.93652344 321.43896484 C-275.64360938 335.43369826 -280.08213849 350.59432151 -284.94918823 365.73291016 C-296.82089874 402.46351468 -317.45496048 433.21011345 -348 457 C-349.05219823 457.83188594 -350.10427765 458.66392219 -351.15625 459.49609375 C-357.6786788 464.60662893 -364.36218642 469.28499956 -371.27493286 473.85617065 C-396.08973334 490.29309721 -396.08973334 490.29309721 -420 508 C-420.85980469 508.6496875 -421.71960938 509.299375 -422.60546875 509.96875 C-453.20618299 533.53080077 -474.60234924 564.37648699 -491 599 C-492.14486985 595.56539044 -491.91968398 595.15297455 -490.515625 592 C-490.16306641 591.204729 -489.81050781 590.40945801 -489.44726562 589.59008789 C-489.05216797 588.73535889 -488.65707031 587.88062988 -488.25 587 C-487.64188477 585.67053345 -487.64188477 585.67053345 -487.02148438 584.31420898 C-480.37177644 570.07762828 -472.29567889 556.66107406 -463 544 C-462.25621094 542.97003906 -461.51242187 541.94007813 -460.74609375 540.87890625 C-446.95609815 522.31807198 -430.04468037 506.2593848 -411.68505859 492.28662109 C-410.06904697 491.05272059 -408.46584489 489.80209807 -406.86328125 488.55078125 C-400.77643936 483.80808512 -394.58654609 479.24192928 -388.3125 474.75 C-379.67739894 468.56039193 -371.26157275 462.1184705 -362.93164062 455.52490234 C-361.28018303 454.22118595 -359.61773946 452.93140627 -357.953125 451.64453125 C-323.47694262 424.46138745 -306.62487859 388.64402359 -295.69921875 347.0703125 C-287.9812278 317.87509078 -274.5432736 291.39704459 -247.98046875 275.2265625 C-236.58733041 268.63851817 -223.96573157 264.55570949 -211.50805664 260.50341797 C-200.68626377 256.96321072 -190.68111785 252.85239338 -181.20703125 246.41796875 C-179 245 -179 245 -176 244 C-175.91105469 243.17113281 -175.82210938 242.34226562 -175.73046875 241.48828125 C-174.85470098 237.30613888 -173.26320483 233.96236291 -171.3125 230.1875 C-170.76686401 229.12257324 -170.76686401 229.12257324 -170.21020508 228.03613281 C-164.67306305 217.378872 -157.66102876 206.90286863 -148.02661133 199.47949219 C-141.88072048 194.69927521 -139.78448592 189.81564707 -137.4375 182.5 C-136.87373657 180.84556885 -136.87373657 180.84556885 -136.29858398 179.15771484 C-133.58501543 171.09937818 -131.14408437 162.9598413 -128.72753906 154.80859375 C-120.49102324 127.39716994 -109.51301711 100.68421889 -95 76 C-94.57187012 75.27167969 -94.14374023 74.54335938 -93.70263672 73.79296875 C-85.62241546 60.18810218 -76.35644508 47.92944556 -65.42529297 36.49267578 C-64.46861079 35.49076505 -63.51715852 34.48383636 -62.57080078 33.47216797 C-52.02547696 22.21977537 -15.46103659 -10.58363742 0 0 Z " fill="#57B4D6" transform="translate(652,352)"/>
<path d="M0 0 C0.38671875 0.73605469 0.7734375 1.47210938 1.171875 2.23046875 C7.14815694 13.42860099 12.94441289 19.44950111 25 24 C22.03257072 26.38305062 18.87108004 28.27473398 15.56933594 30.15820312 C-16.29052126 48.34298648 -47.07332801 72.25068115 -70 101 C-71.49975036 102.79187564 -72.99975117 104.58354169 -74.5 106.375 C-93.49156505 129.65285577 -106.30275947 156.35653545 -116 184.625 C-122.59752854 203.73338085 -131.48420979 222.0508899 -144 238 C-144.66257812 238.85464844 -145.32515625 239.70929688 -146.0078125 240.58984375 C-158.96201347 256.86624755 -173.76173251 271.04291636 -190 284 C-190.83273437 284.66644531 -191.66546875 285.33289063 -192.5234375 286.01953125 C-194.17527349 287.34047896 -195.82761797 288.66079104 -197.48046875 289.98046875 C-206.44919079 297.16935138 -215.2452255 304.55380952 -224 312 C-224.72703125 312.61230469 -225.4540625 313.22460938 -226.203125 313.85546875 C-260.95303487 343.24180558 -280.02145228 385.50568082 -294.57421875 427.53515625 C-309.10980687 468.89662745 -338.56681921 501.14599268 -376 523 C-376.69657715 523.41217773 -377.3931543 523.82435547 -378.11083984 524.24902344 C-390.50071318 531.54825572 -403.46939412 537.49991371 -416.53044128 543.48553467 C-450.00290706 558.83851229 -483.9300139 575.30333154 -510 602 C-510.66 601.67 -511.32 601.34 -512 601 C-504.07098311 592.71536275 -495.94900339 585.18214899 -486.75634766 578.32080078 C-485.06258936 577.04706818 -483.39541392 575.74465685 -481.73046875 574.43359375 C-462.27764911 559.36275385 -439.85016998 548.10846157 -418 537 C-362.69784581 508.71465175 -325.13315348 476.09741105 -305 416 C-303.85152131 412.40302407 -302.73958843 408.79509248 -301.625 405.1875 C-293.42044072 378.89337025 -282.28442605 353.33948025 -266 331 C-265.59571777 330.4416748 -265.19143555 329.88334961 -264.77490234 329.30810547 C-257.98941032 320.01604248 -250.48265135 311.45068253 -242.3203125 303.3359375 C-239.91056812 300.99130902 -239.91056812 300.99130902 -237.6875 298.125 C-235.18633988 295.07574615 -232.35706197 292.59551047 -229.359375 290.04296875 C-226.5761624 287.63300155 -223.88463067 285.13000157 -221.1875 282.625 C-217.47559999 279.19046254 -213.70722393 275.90387772 -209.75 272.75 C-202.11227206 266.59554096 -195.07799088 259.78089003 -188 253 C-187.10667969 252.14921875 -186.21335937 251.2984375 -185.29296875 250.421875 C-179.71536315 244.99079144 -174.80884698 239.11619512 -170 233 C-169.46632813 232.33355469 -168.93265625 231.66710937 -168.3828125 230.98046875 C-155.12057153 213.95461885 -146.1555877 193.9855072 -140.015625 173.421875 C-127.53177844 131.61340515 -107.40338475 95.2286874 -77.859375 63.04296875 C-76.26781716 61.2942613 -74.74454927 59.51878413 -73.25 57.6875 C-69.16746208 52.81113526 -64.48873023 48.54498165 -59.8125 44.25 C-59.24007568 43.72414307 -58.66765137 43.19828613 -58.07788086 42.65649414 C-56.92162034 41.59541902 -55.76481035 40.53494232 -54.60742188 39.47509766 C-53.2074743 38.19039485 -51.81409301 36.89854396 -50.421875 35.60546875 C-40.73485946 26.70432037 -30.2640775 18.8429435 -19.625 11.125 C-18.88830078 10.5897168 -18.15160156 10.05443359 -17.39257812 9.50292969 C-4.17784581 0 -4.17784581 0 0 0 Z " fill="#57B4D6" transform="translate(588,313)"/>
<path d="M0 0 C79.53 0 159.06 0 241 0 C241 83.16 241 166.32 241 252 C240.67 252 240.34 252 240 252 C239.96559814 251.35901367 239.93119629 250.71802734 239.89575195 250.05761719 C236.43760187 189.43008051 217.45218859 127.69581027 176 82 C174.69675781 80.51693359 174.69675781 80.51693359 173.3671875 79.00390625 C158.00248522 61.65947785 140.28087131 47.21739515 120 36 C119.15550293 35.53062012 118.31100586 35.06124023 117.44091797 34.57763672 C81.42844264 14.73793232 41.12166902 3.17614672 0 1 C0 0.67 0 0.34 0 0 Z " fill="#FEFEFE" transform="translate(667,0)"/>
<path d="M0 0 C0.88945312 0.00644531 1.77890625 0.01289062 2.6953125 0.01953125 C3.61570312 0.03628906 4.53609375 0.05304688 5.484375 0.0703125 C6.42023438 0.07933594 7.35609375 0.08835937 8.3203125 0.09765625 C10.62526157 0.12117614 12.9296866 0.15404397 15.234375 0.1953125 C15.70746094 1.39285156 16.18054688 2.59039062 16.66796875 3.82421875 C25.07213439 24.68705907 36.94773265 42.17428817 51.62109375 59.14453125 C54.04926854 61.95568213 56.36191551 64.84851217 58.671875 67.7578125 C62.48339099 72.45206738 66.61129452 76.68881795 70.92236328 80.91503906 C74.3482364 84.27814305 77.54569298 87.75280743 80.6640625 91.3984375 C84.40545221 95.67962971 88.47010698 99.57545674 92.796875 103.2578125 C96.81182368 106.70925961 100.51276523 110.43494618 104.234375 114.1953125 C108.3654035 118.36468126 112.49844956 122.43185079 116.98046875 126.2265625 C120.30874294 129.13375521 123.51288858 132.1707643 126.734375 135.1953125 C131.16491335 139.35015612 135.6103358 143.46329619 140.21484375 147.42578125 C142.92923693 149.8041567 145.58009887 152.25040155 148.234375 154.6953125 C151.53460284 157.73425742 154.84386974 160.75687461 158.234375 163.6953125 C162.11410453 167.05989122 165.89295009 170.53120158 169.671875 174.0078125 C172.84217289 176.92321206 176.02832257 179.81914328 179.234375 182.6953125 C182.96732421 186.04416404 186.66878705 189.42501772 190.359375 192.8203125 C194.25105843 196.39865391 198.18118569 199.92362863 202.17578125 203.38671875 C204.7239415 205.625425 207.22848093 207.90941462 209.734375 210.1953125 C216.90410006 216.72751071 224.23136334 223.06094948 231.60205078 229.36401367 C235.41919817 232.63058179 239.21862705 235.91651738 243.00708008 239.21630859 C255.05425344 249.70132777 267.49039749 259.57416765 280.234375 269.1953125 C280.86891602 269.67790527 281.50345703 270.16049805 282.15722656 270.65771484 C301.26545846 285.16431027 321.98738383 298.06912966 344.234375 307.1953125 C345.24368961 325.27325865 345.24368961 325.27325865 339.234375 333.1953125 C334.61713064 338.22274486 330.30431353 340.94367819 323.421875 341.5078125 C317.34875433 341.30233097 312.34982653 339.50577732 307.734375 335.5078125 C300.16480032 327.29586566 295.96945564 316.00685706 293.87109375 305.234375 C292.09498966 296.7570193 289.26640928 288.23990981 282.171875 282.8828125 C278.48602926 280.76541176 275.80517965 280.07457886 271.62890625 279.984375 C270.72720703 279.95601563 269.82550781 279.92765625 268.89648438 279.8984375 C267.01646134 279.84689472 265.1362279 279.80246917 263.25585938 279.765625 C253.15929165 279.42166812 246.22525824 276.6249541 239.234375 269.1953125 C233.38512888 262.19973171 229.99869146 253.55656665 226.22363281 245.34228516 C219.41381584 230.56303283 213.11312519 218.53969442 197.421875 212.0078125 C191.28340635 209.8949968 184.9194827 209.12847934 178.4909668 208.40942383 C170.18056811 207.38071933 163.64407321 204.52277793 157.88671875 198.34765625 C152.77519169 191.68937869 150.0327198 183.7672357 147.234375 175.9453125 C145.0634106 169.91776018 142.73072865 164.83291286 138.234375 160.1953125 C137.76257813 159.70804688 137.29078125 159.22078125 136.8046875 158.71875 C130.10896937 152.52973487 120.93234692 151.36708035 112.30078125 149.82226562 C104.00103398 148.21477811 97.3247086 145.42565221 91.890625 138.78125 C88.419087 133.36106568 86.39198474 127.22771924 84.234375 121.1953125 C78.6597049 105.68541747 71.67193455 93.71702314 56.43945312 86.16943359 C50.58518954 83.58323876 44.46550612 81.57993907 38.39501953 79.56689453 C28.9581297 76.36936781 19.9913529 72.65087379 14.234375 64.1953125 C12.50219658 60.59471691 11.82142462 57.11046351 11.24755859 53.16772461 C9.35111518 40.22670181 5.37228772 33.58213121 -4.765625 25.1953125 C-9.54710978 20.72566368 -12.87296782 17.35701379 -13.203125 10.6328125 C-13.09142185 7.43065564 -12.9351574 6.43144691 -11.015625 3.7578125 C-7.24329865 1.13814143 -4.63932048 -0.05947847 0 0 Z " fill="#57B4D6" transform="translate(440.765625,124.8046875)"/>
<path d="M0 0 C0.99273926 0.12890625 1.98547852 0.2578125 3.00830078 0.390625 C31.28598433 4.10199042 57.97732806 11.63622494 83.22705078 25.06494141 C84.89803194 25.94622175 86.58724686 26.79267752 88.27734375 27.63671875 C97.82376267 32.51023051 106.36472041 38.68427451 115 45 C114.34 45.33 113.68 45.66 113 46 C111.09408808 45.26292403 109.22555102 44.42924227 107.375 43.5625 C77.05510785 29.9790908 42.54404001 22.11043314 9.31640625 21.7265625 C8.31527298 21.71403442 7.31413971 21.70150635 6.28266907 21.68859863 C-33.80893495 21.28489261 -71.31706321 25.48003961 -109 40 C-109.80276367 40.30663574 -110.60552734 40.61327148 -111.43261719 40.92919922 C-138.18701709 51.28002902 -167.20543809 67.87303647 -179.86132812 94.83496094 C-181.43321996 98.4928596 -182.7901377 102.20837797 -184 106 C-184.20367187 106.61230469 -184.40734375 107.22460938 -184.6171875 107.85546875 C-185.22890358 111.28232717 -185.14611777 114.71852954 -185.125 118.1875 C-185.12209961 119.32336548 -185.12209961 119.32336548 -185.11914062 120.48217773 C-185.07868741 125.71918406 -184.75463219 130.81190369 -184 136 C-187.82641186 131.69419713 -190.14656176 127.04541237 -192.5625 121.875 C-192.96017578 121.0291333 -193.35785156 120.1832666 -193.76757812 119.31176758 C-196.51325183 113.34700847 -198.78088452 107.476551 -200 101 C-200.17917969 100.06027344 -200.35835938 99.12054688 -200.54296875 98.15234375 C-202.09102934 87.47469508 -201.3533538 77.88033902 -197 68 C-196.59910156 67.08734375 -196.19820313 66.1746875 -195.78515625 65.234375 C-182.25807005 37.78811315 -149.67154414 21.48629304 -122 12 C-120.73615479 11.56324951 -120.73615479 11.56324951 -119.44677734 11.11767578 C-81.61335769 -1.64196695 -39.50606494 -5.46447356 0 0 Z " fill="#FCFDFD" transform="translate(688,22)"/>
<path d="M0 0 C1.75763456 2.63645184 2.91616022 5.11982441 4.10424805 8.03710938 C13.21217942 30.17581393 28.0858779 49.32230764 44 67 C44.79374023 67.88204102 45.58748047 68.76408203 46.40527344 69.67285156 C54.61243706 78.71159456 63.20361907 87.35698643 71.84667969 95.97705078 C74.26353992 98.38850966 76.6749529 100.80532439 79.0859375 103.22265625 C80.64551251 104.78157102 82.2053974 106.34017586 83.765625 107.8984375 C84.47414612 108.60898285 85.18266724 109.3195282 85.91265869 110.05160522 C89.87663264 113.99724209 93.93347376 117.77476708 98.17709351 121.41864014 C101.32465354 124.14912858 104.34209531 127.01859022 107.375 129.875 C114.41563977 136.47477973 121.52123788 142.98937227 128.8125 149.3125 C133.03143491 152.98374356 137.11940112 156.79243726 141.21972656 160.59472656 C144.73715642 163.85084997 148.30197769 167.03819033 151.92578125 170.17578125 C157.22941762 174.84018461 162.38692494 179.67240248 167.58203125 184.45703125 C172.96395554 189.41160671 178.354694 194.34526313 183.88671875 199.1328125 C186.04395786 201.03883892 188.15807043 202.98782688 190.26904297 204.94482422 C194.5362941 208.89888261 198.83174337 212.73504181 203.375 216.375 C207.79180341 219.92501371 211.94063411 223.68061904 216.0625 227.5625 C220.70671595 231.93102619 225.4210838 236.06960762 230.45703125 239.98828125 C233.45138044 242.35708284 236.34956187 244.83078862 239.25 247.3125 C261.01475108 265.82992342 284.06809397 282.05371507 309 296 C308.34 296.99 307.68 297.98 307 299 C306.67 299.66 306.34 300.32 306 301 C287.02342658 290.95624609 269.89719844 279.00882418 253.10375977 265.66430664 C250.84644168 263.87851839 248.57511245 262.11171631 246.30078125 260.34765625 C233.51915045 250.420443 221.211597 239.88413604 209.2265625 229.01171875 C207.16895609 227.15265331 205.09153237 225.32071642 203 223.5 C199.10209515 220.10505061 195.26652943 216.64334116 191.4296875 213.1796875 C189.3439382 211.30854906 187.24182372 209.46075169 185.125 207.625 C181.15669451 204.17080696 177.28987441 200.60869442 173.42016602 197.04516602 C170.66561908 194.512893 167.89274925 192.00979797 165.0625 189.5625 C161.51597267 186.48785988 158.06819466 183.31411542 154.625 180.125 C146.81061304 172.8922267 138.92580195 165.77189249 130.8125 158.875 C126.55109423 155.250909 122.44131105 151.58427843 118.55078125 147.55859375 C116.24172673 145.23790671 113.75803514 143.13470246 111.28125 140.99609375 C106.98620002 137.23792502 102.80753388 133.35064992 98.61181641 129.48242188 C96.9992546 127.99931444 95.38111746 126.52251126 93.76171875 125.046875 C87.75471955 119.55831025 81.90461473 113.95884752 76.18774414 108.16845703 C72.79501536 104.74780221 69.2999065 101.51153388 65.62109375 98.40234375 C63.99060992 96.99187701 62.43559898 95.61013989 61 94 C61 93.34 61 92.68 61 92 C60.42121094 91.75765625 59.84242188 91.5153125 59.24609375 91.265625 C56.5776528 89.76201653 55.06326288 88.06950246 53.0625 85.75 C49.82740583 82.05655641 46.54754877 78.42790652 43.18261719 74.85229492 C37.16464365 68.45099429 31.43895295 61.90629637 26 55 C25.20078125 54.00742188 24.4015625 53.01484375 23.578125 51.9921875 C11.90187227 37.3331167 0.45333334 20.40711114 -4 2 C-2.68 1.34 -1.36 0.68 0 0 Z " fill="#F3F9FA" transform="translate(460,123)"/>
<path d="M0 0 C0.99 0.99 0.99 0.99 2 2 C2.66 2 3.32 2 4 2 C4 1.34 4 0.68 4 0 C4.99 0.33 5.98 0.66 7 1 C-10.07357808 15.59307711 -35.41634895 21.82760064 -56.625 27.5625 C-57.44930511 27.78645447 -58.27361023 28.01040894 -59.12289429 28.2411499 C-61.48846645 28.87956924 -63.85663577 29.50686612 -66.2265625 30.12890625 C-66.93711288 30.31905807 -67.64766327 30.5092099 -68.37974548 30.7051239 C-71.99669266 31.6352132 -75.26218594 32.21701975 -79 32 C-75.97991186 29.98660791 -73.66555829 29.17453832 -70.20703125 28.15234375 C-69.03100342 27.79906006 -67.85497559 27.44577637 -66.64331055 27.08178711 C-65.37914307 26.70417236 -64.11497559 26.32655762 -62.8125 25.9375 C-40.85863574 19.2657137 -19.91614768 11.49301261 0 0 Z " fill="#60B8D7" transform="translate(239,963)"/>
<path d="M0 0 C7.90938917 7.19035379 12.62134986 15.86679878 17 25.5 C17.41024414 26.39726807 17.82048828 27.29453613 18.24316406 28.21899414 C18.61666992 29.06453857 18.99017578 29.91008301 19.375 30.78125 C19.71273437 31.54501953 20.05046875 32.30878906 20.3984375 33.09570312 C21 35 21 35 20 37 C19.01 37 18.02 37 17 37 C17 37.99 17 38.98 17 40 C14.36 40 11.72 40 9 40 C9 39.67 9 39.34 9 39 C11.31 39 13.62 39 16 39 C11.05760962 27.65924453 6.09311389 16.74988628 -0.71484375 6.390625 C-1.13894531 5.60171875 -1.56304688 4.8128125 -2 4 C-1.1875 1.6875 -1.1875 1.6875 0 0 Z " fill="#F1F8FA" transform="translate(651,344)"/>
<path d="M0 0 C0.66 1.32 1.32 2.64 2 4 C0.87464844 4.66644531 -0.25070313 5.33289063 -1.41015625 6.01953125 C-18.06571967 15.97818922 -34.40599878 27.01667177 -48 41 C-48.66 40.67 -49.32 40.34 -50 40 C-41.5438494 31.16458683 -32.80836676 23.29900754 -23 16 C-22.35675781 15.51724609 -21.71351562 15.03449219 -21.05078125 14.53710938 C-14.20432374 9.40562895 -7.37094805 4.36239783 0 0 Z " fill="#63B9D8" transform="translate(126,874)"/>
<path d="M0 0 C6.35372519 -0.050652 12.70739844 -0.08571322 19.0612793 -0.10986328 C21.22340847 -0.11992951 23.385524 -0.13358354 25.54760742 -0.15087891 C28.65286625 -0.17509978 31.7579453 -0.18647681 34.86328125 -0.1953125 C35.83211746 -0.20563507 36.80095367 -0.21595764 37.79914856 -0.22659302 C38.6998558 -0.22674408 39.60056305 -0.22689514 40.52856445 -0.22705078 C41.71770195 -0.23371262 41.71770195 -0.23371262 42.93086243 -0.24050903 C45 0 45 0 48 2 C47.01 2.66 46.02 3.32 45 4 C45 4.66 45 5.32 45 6 C45.66 6.33 46.32 6.66 47 7 C42.31080009 6.45168917 37.6511769 5.80308183 32.98828125 5.0625 C31.89966797 4.88976562 30.81105469 4.71703125 29.68945312 4.5390625 C27.4571949 4.18272747 25.22541143 3.82340409 22.99414062 3.4609375 C15.34220162 2.25392181 7.73103788 1.4830409 0 1 C0 0.67 0 0.34 0 0 Z " fill="#F4FAFB" transform="translate(667,0)"/>
<path d="M0 0 C2 3 2 3 3.2265625 5.234375 C6.67837385 11.44377865 10.46157558 15.60917704 16 20 C16.66 20.66 17.32 21.32 18 22 C17.34 23.32 16.68 24.64 16 26 C6.84354133 21.74118201 1.27245889 15.8877344 -2.375 6.4375 C-2.58125 5.633125 -2.7875 4.82875 -3 4 C-2.01 3.67 -1.02 3.34 0 3 C0 2.01 0 1.02 0 0 Z " fill="#F2F9FA" transform="translate(591,309)"/>
<path d="M0 0 C-0.33 0.99 -0.66 1.98 -1 3 C-3.68359375 4.140625 -3.68359375 4.140625 -7.4375 5.25 C-8.12110596 5.45326904 -8.80471191 5.65653809 -9.5090332 5.8659668 C-12.00093467 6.59630987 -14.49946964 7.29976314 -17 8 C-18.06412109 8.3005127 -19.12824219 8.60102539 -20.22460938 8.91064453 C-23.70917805 9.88938386 -27.19732717 10.8539468 -30.6875 11.8125 C-31.82179443 12.12670898 -32.95608887 12.44091797 -34.12475586 12.76464844 C-35.20120361 13.05500977 -36.27765137 13.34537109 -37.38671875 13.64453125 C-38.34795654 13.90596924 -39.30919434 14.16740723 -40.29956055 14.43676758 C-42.95178691 14.98994416 -45.30001536 15.10642902 -48 15 C-44.90038817 12.93359211 -42.40819191 12.08302761 -38.85546875 11.01171875 C-37.61990234 10.63466797 -36.38433594 10.25761719 -35.11132812 9.86914062 C-33.80351668 9.4748248 -32.49557343 9.08094587 -31.1875 8.6875 C-22.2449472 5.98586413 -13.45280602 3.15210719 -4.72387695 -0.16870117 C-2 -1 -2 -1 0 0 Z " fill="#71C0DA" transform="translate(208,980)"/>
<path d="M0 0 C0.7425 0.0825 1.485 0.165 2.25 0.25 C-0.40574098 2.91557706 -3.07162185 5.56840138 -5.765625 8.1953125 C-12.59536565 14.88975884 -18.83473259 21.72371381 -24.75 29.25 C-25.76581415 30.48331788 -26.78568267 31.71332781 -27.8125 32.9375 C-28.451875 33.700625 -29.09125 34.46375 -29.75 35.25 C-29.75 31.20651125 -27.73210665 29.27141758 -25.3125 26.25 C-24.86455078 25.68128174 -24.41660156 25.11256348 -23.95507812 24.52661133 C-23.02334379 23.3476922 -22.08790449 22.1716925 -21.14892578 20.99853516 C-19.8078204 19.32227046 -18.47937083 17.63663524 -17.15234375 15.94921875 C-12.58548634 10.22393898 -12.58548634 10.22393898 -10.75 8.25 C-10.09 8.25 -9.43 8.25 -8.75 8.25 C-8.5025 7.6725 -8.255 7.095 -8 6.5 C-5.97106564 2.84791816 -4.32341245 0.3930375 0 0 Z " fill="#68BCD8" transform="translate(46.75,885.75)"/>
<path d="M0 0 C0.66 0 1.32 0 2 0 C1.65076411 2.69493695 1.28634176 3.75954634 -0.828125 5.53515625 C-1.62734375 6.03917969 -2.4265625 6.54320312 -3.25 7.0625 C-7.70468244 10.02800906 -11.80780627 13.22253271 -15.875 16.6875 C-16.42188477 17.15099854 -16.96876953 17.61449707 -17.53222656 18.09204102 C-20.47960926 20.6158396 -23.29898127 23.21416667 -26 26 C-26.66 25.67 -27.32 25.34 -28 25 C-19.54099903 16.16160862 -10.74894337 8.38214787 -1 1 C-0.67 0.67 -0.34 0.34 0 0 Z " fill="#69BCD8" transform="translate(104,889)"/>
<path d="M0 0 C1.24609375 1.5390625 1.24609375 1.5390625 2 4 C0.80799282 6.65229219 -0.41594081 8.92221492 -1.9375 11.375 C-2.78153096 12.79777157 -3.62262424 14.22228951 -4.4609375 15.6484375 C-5.10047363 16.72883301 -5.10047363 16.72883301 -5.75292969 17.83105469 C-7.66254217 21.15231493 -9.37405187 24.56227489 -11.0625 28 C-11.63097656 29.155 -12.19945312 30.31 -12.78515625 31.5 C-13.18605469 32.325 -13.58695313 33.15 -14 34 C-15.17656502 30.47030493 -14.82882533 29.9735222 -13.33984375 26.71875 C-12.96077881 25.88118164 -12.58171387 25.04361328 -12.19116211 24.18066406 C-11.57059937 22.85373535 -11.57059937 22.85373535 -10.9375 21.5 C-10.31983765 20.15373535 -10.31983765 20.15373535 -9.68969727 18.78027344 C-6.7181341 12.36786144 -3.56966779 6.10343199 0 0 Z " fill="#6FBFD8" transform="translate(175,917)"/>
<path d="M0 0 C4.72843614 1.57313172 8.3433843 4.20641235 12.3125 7.125 C12.95767578 7.59292969 13.60285156 8.06085937 14.26757812 8.54296875 C15.84848894 9.6905929 17.42472301 10.84465477 19 12 C18.01 12.495 18.01 12.495 17 13 C14.66804784 12.13401523 12.44722949 11.21422837 10.1875 10.1875 C8.95203883 9.63883647 7.7163653 9.09065086 6.48046875 8.54296875 C4.75763672 7.77919922 4.75763672 7.77919922 3 7 C1.33715768 6.32385087 -0.32789857 5.6529158 -2 5 C-1.34 3.35 -0.68 1.7 0 0 Z " fill="#EBF5FA" transform="translate(784,55)"/>
<path d="M0 0 C-0.33 0.66 -0.66 1.32 -1 2 C-3.546875 2.6328125 -3.546875 2.6328125 -6.75 3.125 C-7.79671875 3.29257812 -8.8434375 3.46015625 -9.921875 3.6328125 C-12.6561577 3.95898328 -15.25107058 4.07126854 -18 4 C-18.33 3.01 -18.66 2.02 -19 1 C-12.33928512 -1.13645572 -6.89836454 -0.93838047 0 0 Z " fill="#58B4D8" transform="translate(627,20)"/>
<path d="M0 0 C2.4375 0.8125 2.4375 0.8125 5 2 C5.33 2.99 5.66 3.98 6 5 C5.34 5 4.68 5 4 5 C4 5.66 4 6.32 4 7 C4.66 7.33 5.32 7.66 6 8 C1.545 11.465 1.545 11.465 -3 15 C-3.66 14.34 -4.32 13.68 -5 13 C-3.68 12.67 -2.36 12.34 -1 12 C-1.37125 11.13375 -1.37125 11.13375 -1.75 10.25 C-1.8325 9.5075 -1.915 8.765 -2 8 C-0.0625 5.75 -0.0625 5.75 2 4 C1.01 3.01 0.02 2.02 -1 1 C-0.67 0.67 -0.34 0.34 0 0 Z " fill="#61B8D9" transform="translate(233,810)"/>
<path d="M0 0 C0.33 0 0.66 0 1 0 C1 9.9 1 19.8 1 30 C0.67 29.34 0.34 28.68 0 28 C-0.66 28 -1.32 28 -2 28 C-1.33333333 18.66666667 -0.66666667 9.33333333 0 0 Z " fill="#E5F3F7" transform="translate(907,284)"/>
<path d="M0 0 C2.31 0 4.62 0 7 0 C7 0.66 7 1.32 7 2 C10.04913228 3.01111093 10.04913228 3.01111093 13 2 C13.66 2.33 14.32 2.66 15 3 C15 4.32 15 5.64 15 7 C15.99 7 16.98 7 18 7 C18 7.66 18 8.32 18 9 C13.64029169 7.65150163 9.68658562 5.95092154 5.625 3.875 C4.56539062 3.33617187 3.50578125 2.79734375 2.4140625 2.2421875 C1.61742187 1.83226562 0.82078125 1.42234375 0 1 C0 0.67 0 0.34 0 0 Z " fill="#61B9D7" transform="translate(765,417)"/>
<path d="M0 0 C2 2 2 2 2.22705078 4.79736328 C2.21657715 5.95993652 2.20610352 7.12250977 2.1953125 8.3203125 C2.18886719 9.57714844 2.18242188 10.83398438 2.17578125 12.12890625 C2.15902344 13.44761719 2.14226563 14.76632813 2.125 16.125 C2.11496983 17.46483721 2.10584404 18.80468152 2.09765625 20.14453125 C2.07402075 23.42986573 2.04107234 26.71484465 2 30 C1.67 30 1.34 30 1 30 C0.68959988 26.04952215 0.38663072 22.09855222 0.09057617 18.14697266 C-0.01121539 16.80241488 -0.11504632 15.45800989 -0.22094727 14.11376953 C-0.37269911 12.18303014 -0.51654217 10.25167425 -0.66015625 8.3203125 C-0.74918213 7.15773926 -0.83820801 5.99516602 -0.92993164 4.79736328 C-1 2 -1 2 0 0 Z " fill="#ECF6F8" transform="translate(906,222)"/>
<path d="M0 0 C1 2 1 2 0.22265625 4.3828125 C-0.16019531 5.28773438 -0.54304688 6.19265625 -0.9375 7.125 C-1.31777344 8.03507812 -1.69804687 8.94515625 -2.08984375 9.8828125 C-2.54037109 10.93082031 -2.54037109 10.93082031 -3 12 C-5.97 11.505 -5.97 11.505 -9 11 C-8.60167969 10.54109375 -8.20335937 10.0821875 -7.79296875 9.609375 C-5.08857938 6.47728415 -2.42008229 3.36122541 0 0 Z " fill="#64B9D8" transform="translate(498,287)"/>
<path d="M0 0 C0.66 1.32 1.32 2.64 2 4 C1.34 4 0.68 4 0 4 C0 4.66 0 5.32 0 6 C0.66 6.33 1.32 6.66 2 7 C0.68 7 -0.64 7 -2 7 C-2.1546875 7.9590625 -2.1546875 7.9590625 -2.3125 8.9375 C-2.539375 9.618125 -2.76625 10.29875 -3 11 C-3.99 11.33 -4.98 11.66 -6 12 C-6.33 12.99 -6.66 13.98 -7 15 C-9.0625 15.6875 -9.0625 15.6875 -11 16 C-10.43732422 15.27296875 -10.43732422 15.27296875 -9.86328125 14.53125 C-6.28508528 9.8444442 -3.03734674 5.05328484 0 0 Z " fill="#63B9D8" transform="translate(425,536)"/>
<path d="M0 0 C2.4485658 0.89038756 3.49930542 1.66574057 5.0625 3.75 C5.75 6.4375 5.75 6.4375 6.0625 8.75 C4.7425 9.08 3.4225 9.41 2.0625 9.75 C1.7325 8.1 1.4025 6.45 1.0625 4.75 C0.423125 4.646875 -0.21625 4.54375 -0.875 4.4375 C-1.555625 4.210625 -2.23625 3.98375 -2.9375 3.75 C-3.2675 2.76 -3.5975 1.77 -3.9375 0.75 C-1.9375 -0.25 -1.9375 -0.25 0 0 Z " fill="#56B3D3" transform="translate(651.9375,337.25)"/>
<path d="M0 0 C4.75 0.75 4.75 0.75 7 3 C5.35 5.97 3.7 8.94 2 12 C0.90341064 8.71023192 1.20046862 7.28696233 2 4 C1.34 4 0.68 4 0 4 C0 2.68 0 1.36 0 0 Z " fill="#58B7D6" transform="translate(537,275)"/>
<path d="M0 0 C0.66 0.33 1.32 0.66 2 1 C1.34 1.66 0.68 2.32 0 3 C-0.6425235 5.06874034 -0.6425235 5.06874034 -1 7 C-1.66 7 -2.32 7 -3 7 C-3 7.66 -3 8.32 -3 9 C-4.96466413 10.06775224 -6.96855359 11.06553465 -9 12 C-9.66 11.67 -10.32 11.34 -11 11 C-7.37 7.37 -3.74 3.74 0 0 Z " fill="#67BAD8" transform="translate(668,461)"/>
<path d="M0 0 C1.32 0.33 2.64 0.66 4 1 C3.67 1.33 3.34 1.66 3 2 C3.99 2 4.98 2 6 2 C6 2.66 6 3.32 6 4 C2.37 5.32 -1.26 6.64 -5 8 C-4.67 6.35 -4.34 4.7 -4 3 C-3.01 2.67 -2.02 2.34 -1 2 C-0.67 1.34 -0.34 0.68 0 0 Z " fill="#F4F9F8" transform="translate(550,520)"/>
<path d="M0 0 C0 2 0 4 0 6 C-0.66 6 -1.32 6 -2 6 C-2 6.66 -2 7.32 -2 8 C-3.96875 9.5078125 -3.96875 9.5078125 -6.5 11.125 C-7.3353125 11.66382813 -8.170625 12.20265625 -9.03125 12.7578125 C-9.6809375 13.16773438 -10.330625 13.57765625 -11 14 C-9.42219077 10.28954753 -7.09296752 7.70093616 -4.375 4.75 C-3.55773438 3.85796875 -2.74046875 2.9659375 -1.8984375 2.046875 C-1.27195312 1.37140625 -0.64546875 0.6959375 0 0 Z " fill="#D2EAEF" transform="translate(43,869)"/>
<path d="M0 0 C0 1.32 0 2.64 0 4 C-4.76307437 4.95261487 -9.1666528 5.08333357 -14 5 C-11.35493484 3.23662322 -9.40786033 2.3439149 -6.4375 1.375 C-5.65246094 1.11460937 -4.86742187 0.85421875 -4.05859375 0.5859375 C-2 0 -2 0 0 0 Z " fill="#61BAD7" transform="translate(564,521)"/>
<path d="M0 0 C1.60031344 3.20062687 0.03173691 5.72271806 -1 9 C-2.32 9.33 -3.64 9.66 -5 10 C-5 10.99 -5 11.98 -5 13 C-5.99 13.33 -6.98 13.66 -8 14 C-6.6744419 10.37723685 -5.05653045 7.36494652 -2.875 4.1875 C-2.33617187 3.39730469 -1.79734375 2.60710938 -1.2421875 1.79296875 C-0.83226562 1.20128906 -0.42234375 0.60960937 0 0 Z " fill="#B9DFEB" transform="translate(15,921)"/>
<path d="M0 0 C1.32 0 2.64 0 4 0 C4 0.66 4 1.32 4 2 C6.64 2 9.28 2 12 2 C10 4 10 4 8.12060547 4.13525391 C7.37697754 4.08288574 6.63334961 4.03051758 5.8671875 3.9765625 C5.06152344 3.925 4.25585938 3.8734375 3.42578125 3.8203125 C2.58402344 3.75585938 1.74226562 3.69140625 0.875 3.625 C0.02550781 3.56828125 -0.82398438 3.5115625 -1.69921875 3.453125 C-3.8001345 3.31149023 -5.90017334 3.15695674 -8 3 C-8 2.67 -8 2.34 -8 2 C-5.36 2 -2.72 2 0 2 C0 1.34 0 0.68 0 0 Z " fill="#63B8D8" transform="translate(676,18)"/>
<path d="M0 0 C0 0.66 0 1.32 0 2 C-0.99 2 -1.98 2 -3 2 C-3.33 4.31 -3.66 6.62 -4 9 C-4.33 7.68 -4.66 6.36 -5 5 C-5.66 5 -6.32 5 -7 5 C-6.625 2.5625 -6.625 2.5625 -6 0 C-3.50907189 -1.24546405 -2.58919267 -0.7767578 0 0 Z " fill="#54B4D6" transform="translate(105,745)"/>
<path d="M0 0 C2 2 2 2 2.4375 5.4375 C2.2209375 7.2009375 2.2209375 7.2009375 2 9 C-0.475 10.485 -0.475 10.485 -3 12 C-2.01 8.04 -1.02 4.08 0 0 Z " fill="#64BAD9" transform="translate(94,760)"/>
<path d="M0 0 C0.33 0 0.66 0 1 0 C0.67 2.31 0.34 4.62 0 7 C0.66 7 1.32 7 2 7 C2 8.65 2 10.3 2 12 C1.01 11.34 0.02 10.68 -1 10 C-1.33 10.99 -1.66 11.98 -2 13 C-2.66 13 -3.32 13 -4 13 C-3.52140759 11.39566191 -3.04210442 9.79153584 -2.5625 8.1875 C-2.29566406 7.29417969 -2.02882813 6.40085937 -1.75390625 5.48046875 C-1.19612127 3.64526945 -0.60655425 1.81966274 0 0 Z " fill="#60B8DB" transform="translate(516,530)"/>
<path d="M0 0 C0.33 0.99 0.66 1.98 1 3 C0.01 3.33 -0.98 3.66 -2 4 C-2.33 4.66 -2.66 5.32 -3 6 C-6.56589688 7.94503466 -10.20827567 9.55022305 -14 11 C-9.85989729 6.45924219 -5.17609824 3.28157862 0 0 Z " fill="#65B9D5" transform="translate(501,37)"/>
<path d="M0 0 C0.66 0.66 1.32 1.32 2 2 C-3.94 7.445 -3.94 7.445 -10 13 C-10.66 12.67 -11.32 12.34 -12 12 C-8.04 8.04 -4.08 4.08 0 0 Z " fill="#7BC3DB" transform="translate(88,902)"/>
<path d="M0 0 C0.66 1.32 1.32 2.64 2 4 C2.99 3.67 3.98 3.34 5 3 C4.67 4.65 4.34 6.3 4 8 C1.03 7.505 1.03 7.505 -2 7 C-1.125 1.125 -1.125 1.125 0 0 Z " fill="#53B4D3" transform="translate(276,818)"/>
<path d="M0 0 C0.57421875 1.87109375 0.57421875 1.87109375 1 4 C-0.78514106 7.10050816 -3.07847121 8.98515256 -6 11 C-6.33 10.01 -6.66 9.02 -7 8 C-5.56640625 5.95703125 -5.56640625 5.95703125 -3.5625 3.8125 C-2.90378906 3.09707031 -2.24507812 2.38164063 -1.56640625 1.64453125 C-1.04949219 1.10183594 -0.53257812 0.55914063 0 0 Z " fill="#61B8D7" transform="translate(214,771)"/>
<path d="M0 0 C-0.99 0.33 -1.98 0.66 -3 1 C-3 1.66 -3 2.32 -3 3 C-4.45635371 3.22174933 -5.91522956 3.42698698 -7.375 3.625 C-8.18710937 3.74101562 -8.99921875 3.85703125 -9.8359375 3.9765625 C-10.55007813 3.98429687 -11.26421875 3.99203125 -12 4 C-12.66 3.34 -13.32 2.68 -14 2 C-12.04396149 1.47061343 -10.08507711 0.95173199 -8.125 0.4375 C-7.03445313 0.14746094 -5.94390625 -0.14257812 -4.8203125 -0.44140625 C-2 -1 -2 -1 0 0 Z " fill="#6BBDDB" transform="translate(409,344)"/>
<path d="M0 0 C3.59147806 1.33397757 6.8843916 2.74983838 10 5 C10.8125 7.1875 10.8125 7.1875 11 9 C6.21495828 6.51545911 3.13922331 4.52048157 0 0 Z " fill="#65BAD9" transform="translate(533,263)"/>
<path d="M0 0 C0 0.99 0 1.98 0 3 C-2 5 -2 5 -4.625 5.125 C-5.40875 5.08375 -6.1925 5.0425 -7 5 C-6.625 2.5625 -6.625 2.5625 -6 0 C-3.50907189 -1.24546405 -2.58919267 -0.7767578 0 0 Z " fill="#53B3D4" transform="translate(182,847)"/>
<path d="M0 0 C0.33 0.66 0.66 1.32 1 2 C0.0625 4.625 0.0625 4.625 -1 7 C-1.66 7 -2.32 7 -3 7 C-3 7.99 -3 8.98 -3 10 C-4.65 10 -6.3 10 -8 10 C-7.59007812 9.52949219 -7.18015625 9.05898438 -6.7578125 8.57421875 C-6.21898437 7.95160156 -5.68015625 7.32898438 -5.125 6.6875 C-4.59132813 6.07261719 -4.05765625 5.45773437 -3.5078125 4.82421875 C-1.8359553 2.86501788 -1.8359553 2.86501788 0 0 Z " fill="#F0F9FA" transform="translate(431,565)"/>
<path d="M0 0 C0.33 0 0.66 0 1 0 C1 2.64 1 5.28 1 8 C-0.65 8.33 -2.3 8.66 -4 9 C-4 9.66 -4 10.32 -4 11 C-4.66 10.67 -5.32 10.34 -6 10 C-5.02526874 8.33073546 -4.04510211 6.66464358 -3.0625 5 C-2.24458984 3.6078125 -2.24458984 3.6078125 -1.41015625 2.1875 C-0.71212891 1.1046875 -0.71212891 1.1046875 0 0 Z " fill="#63BAD9" transform="translate(406,472)"/>
<path d="M0 0 C0.66 0.66 1.32 1.32 2 2 C1.54625 2.7425 1.0925 3.485 0.625 4.25 C-0.68640796 6.46930578 -1.88280803 8.67967822 -3 11 C-3.99 10.34 -4.98 9.68 -6 9 C-4.02 6.03 -2.04 3.06 0 0 Z " fill="#62B8D8" transform="translate(682,442)"/>
<path d="M0 0 C0.99 0 1.98 0 3 0 C2.47916667 1.98567708 1.95833333 3.97135417 1.4375 5.95703125 C0.8952993 8.14070009 0.8952993 8.14070009 1 11 C-0.32 11.33 -1.64 11.66 -3 12 C-2.01 8.04 -1.02 4.08 0 0 Z " fill="#62B9DA" transform="translate(692,416)"/>
<path d="M0 0 C1.12894876 0.93274109 2.25300876 1.87140122 3.375 2.8125 C4.00148438 3.33457031 4.62796875 3.85664063 5.2734375 4.39453125 C7 6 7 6 9 9 C8.34 9 7.68 9 7 9 C6.67 9.66 6.34 10.32 6 11 C5.38125 10.05125 4.7625 9.1025 4.125 8.125 C2.18029031 5.05554891 2.18029031 5.05554891 0 3 C0 2.01 0 1.02 0 0 Z " fill="#67BBD8" transform="translate(507,202)"/>
<path d="M0 0 C0.33 0 0.66 0 1 0 C0.67 3.96 0.34 7.92 0 12 C-0.66 12 -1.32 12 -2 12 C-2 12.66 -2 13.32 -2 14 C-2.66 14 -3.32 14 -4 14 C-3.52372025 12.04096255 -3.04388577 10.08278903 -2.5625 8.125 C-2.29566406 7.03445313 -2.02882813 5.94390625 -1.75390625 4.8203125 C-1 2 -1 2 0 0 Z " fill="#6EBFD9" transform="translate(525,502)"/>
<path d="M0 0 C0.33 0 0.66 0 1 0 C1.94693195 3.7016431 2.30443767 5.39112465 0.5625 8.875 C0.046875 9.57625 -0.46875 10.2775 -1 11 C-1.99 10.67 -2.98 10.34 -4 10 C-2.68 6.7 -1.36 3.4 0 0 Z " fill="#63B8D8" transform="translate(541,459)"/>
<path d="M0 0 C0.33 0.99 0.66 1.98 1 3 C0.67 3.66 0.34 4.32 0 5 C0.99 5.33 1.98 5.66 3 6 C2.01 6.66 1.02 7.32 0 8 C-0.268125 7.360625 -0.53625 6.72125 -0.8125 6.0625 C-1.88667752 3.66868314 -1.88667752 3.66868314 -5 3 C-3.35 2.01 -1.7 1.02 0 0 Z " fill="#68BCD9" transform="translate(123,833)"/>
<path d="M0 0 C0.99 0.66 1.98 1.32 3 2 C0.69 4.31 -1.62 6.62 -4 9 C-4.66 8.01 -5.32 7.02 -6 6 C-4.73577236 3.47154472 -3.47154472 3.23577236 -1 2 C-0.67 1.34 -0.34 0.68 0 0 Z " fill="#66BAD8" transform="translate(363,621)"/>
<path d="M0 0 C0.66 0 1.32 0 2 0 C2.6875 1.8125 2.6875 1.8125 3 4 C1.75 5.75 1.75 5.75 0 7 C-0.99 7 -1.98 7 -3 7 C-1.125 1.125 -1.125 1.125 0 0 Z " fill="#61B9D8" transform="translate(468,436)"/>
<path d="M0 0 C2.125 0.375 2.125 0.375 4 1 C4 1.99 4 2.98 4 4 C3.34 4 2.68 4 2 4 C1.67 4.99 1.34 5.98 1 7 C-0.5 5.625 -0.5 5.625 -2 4 C-2 2 -2 2 0 0 Z " fill="#E6F4F8" transform="translate(564,252)"/>
<path d="M0 0 C0.66 0.33 1.32 0.66 2 1 C0.3125 3.5 0.3125 3.5 -2 6 C-4.75 6.3125 -4.75 6.3125 -7 6 C-6 3 -6 3 -3.0625 1.25 C-2.051875 0.8375 -1.04125 0.425 0 0 Z " fill="#ECF7F9" transform="translate(172,855)"/>
<path d="M0 0 C1 3 1 3 -0.6875 6.625 C-2.63475967 9.84781653 -2.63475967 9.84781653 -5.25 10.9375 C-5.8275 10.958125 -6.405 10.97875 -7 11 C-4.79080336 7.24436571 -2.43615728 3.61223321 0 0 Z " fill="#67BBD6" transform="translate(222,760)"/>
<path d="M0 0 C0.66 0 1.32 0 2 0 C1.62669176 2.72574271 1.20805399 3.80822085 -0.84765625 5.703125 C-1.94400391 6.46882812 -1.94400391 6.46882812 -3.0625 7.25 C-3.79597656 7.77078125 -4.52945312 8.2915625 -5.28515625 8.828125 C-5.85105469 9.21484375 -6.41695313 9.6015625 -7 10 C-7 9.01 -7 8.02 -7 7 C-6.34 7 -5.68 7 -5 7 C-4.67 6.01 -4.34 5.02 -4 4 C-1.9375 3.3125 -1.9375 3.3125 0 3 C0 2.01 0 1.02 0 0 Z " fill="#65BBD6" transform="translate(376,610)"/>
<path d="M0 0 C0 3.99904969 -1.72586967 5.80200422 -4 9 C-5.32 8.67 -6.64 8.34 -8 8 C-5.36 5.36 -2.72 2.72 0 0 Z " fill="#E7F5FA" transform="translate(615,405)"/>
<path d="M0 0 C0 0.66 0 1.32 0 2 C-3.62197194 3.49140021 -7.27566618 4.7874262 -11 6 C-11.66 5.34 -12.32 4.68 -13 4 C-11.2097939 3.32942113 -9.41778511 2.6636531 -7.625 2 C-6.62726563 1.62875 -5.62953125 1.2575 -4.6015625 0.875 C-2 0 -2 0 0 0 Z " fill="#67BCDB" transform="translate(383,350)"/>
<path d="M0 0 C2.0625 0.75 2.0625 0.75 4 2 C4.33 2.99 4.66 3.98 5 5 C3.02 5 1.04 5 -1 5 C-1.33 3.68 -1.66 2.36 -2 1 C-1.34 0.67 -0.68 0.34 0 0 Z " fill="#F8FCFB" transform="translate(591,276)"/>
<path d="M0 0 C4.43458973 1.3937282 6.87378374 3.60582235 10 7 C2.18363463 5.08277831 2.18363463 5.08277831 0 2 C0 1.34 0 0.68 0 0 Z " fill="#65B9D7" transform="translate(800,44)"/>
<path d="M0 0 C0.33 0.66 0.66 1.32 1 2 C-5.75 3.125 -5.75 3.125 -8 2 C-8 1.34 -8 0.68 -8 0 C-4.69693408 -1.10102197 -3.28414305 -0.95067299 0 0 Z " fill="#63BAD8" transform="translate(572,10)"/>
<path d="M0 0 C0.75 1.625 0.75 1.625 1 4 C-0.9375 7.25 -0.9375 7.25 -3 10 C-3.66 9.34 -4.32 8.68 -5 8 C-3.8141763 4.62496331 -2.72426311 2.35277269 0 0 Z " fill="#E2F1F4" transform="translate(6,935)"/>
<path d="M0 0 C0.99 0.33 1.98 0.66 3 1 C1.35 2.65 -0.3 4.3 -2 6 C-2.99 5.34 -3.98 4.68 -5 4 C-5 3.34 -5 2.68 -5 2 C-4.01 1.67 -3.02 1.34 -2 1 C-1.34 1.33 -0.68 1.66 0 2 C0 1.34 0 0.68 0 0 Z " fill="#63B8D9" transform="translate(495,331)"/>
<path d="M0 0 C0.66 1.98 1.32 3.96 2 6 C-0.9375 5.1875 -0.9375 5.1875 -4 4 C-4.33 3.01 -4.66 2.02 -5 1 C-3 0 -3 0 0 0 Z " fill="#65BAD7" transform="translate(588,313)"/>
<path d="M0 0 C2.75 -0.25 2.75 -0.25 6 0 C8.375 2 8.375 2 10 4 C5.66905042 4 3.72965139 3.03435531 0 1 C0 0.67 0 0.34 0 0 Z " fill="#61B8D8" transform="translate(766,44)"/>
<path d="M0 0 C0.66 0.33 1.32 0.66 2 1 C1.34 3.64 0.68 6.28 0 9 C-0.99 9 -1.98 9 -3 9 C-2.01 6.03 -1.02 3.06 0 0 Z " fill="#65BBDA" transform="translate(293,534)"/>
<path d="M0 0 C0.33 0 0.66 0 1 0 C1 3.3 1 6.6 1 10 C0.34 10 -0.32 10 -1 10 C-1 10.66 -1 11.32 -1 12 C-1.66 12 -2.32 12 -3 12 C-2.01 8.04 -1.02 4.08 0 0 Z " fill="#66BBD8" transform="translate(453,470)"/>
<path d="M0 0 C0.33 0 0.66 0 1 0 C1 1.65 1 3.3 1 5 C1.66 5.33 2.32 5.66 3 6 C1.68 7.98 0.36 9.96 -1 12 C-2.09898702 8.70303895 -1.87124444 7.59505097 -1.0625 4.3125 C-0.86785156 3.50425781 -0.67320312 2.69601562 -0.47265625 1.86328125 C-0.31667969 1.24839844 -0.16070312 0.63351562 0 0 Z " fill="#6BBDDB" transform="translate(418,438)"/>
<path d="M0 0 C0.66 0.33 1.32 0.66 2 1 C1.34 4.3 0.68 7.6 0 11 C-2 7 -2 7 -1.125 3.25 C-0.75375 2.1775 -0.3825 1.105 0 0 Z " fill="#64BCDA" transform="translate(902,319)"/>
<path d="M0 0 C0.33 1.32 0.66 2.64 1 4 C-0.65 5.32 -2.3 6.64 -4 8 C-4.66 7.67 -5.32 7.34 -6 7 C-6 6.34 -6 5.68 -6 5 C-5.38125 4.731875 -4.7625 4.46375 -4.125 4.1875 C-1.7004767 3.04443152 -1.7004767 3.04443152 0 0 Z " fill="#EDF6F7" transform="translate(253,948)"/>
<path d="M0 0 C0.99 0.33 1.98 0.66 3 1 C2.34 3.31 1.68 5.62 1 8 C0.01 6.68 -0.98 5.36 -2 4 C-1.34 2.68 -0.68 1.36 0 0 Z " fill="#61BAD9" transform="translate(293,887)"/>
<path d="M0 0 C0.33 0.99 0.66 1.98 1 3 C-0.32 4.32 -1.64 5.64 -3 7 C-3.99 6.67 -4.98 6.34 -6 6 C-2.25 1.125 -2.25 1.125 0 0 Z " fill="#C1E2EE" transform="translate(50,862)"/>
<path d="M0 0 C2.61382886 3.92074329 2.29386386 7.44511017 2 12 C1.34 12.66 0.68 13.32 0 14 C-0.19627391 12.41773035 -0.38165538 10.83410729 -0.5625 9.25 C-0.66691406 8.36828125 -0.77132813 7.4865625 -0.87890625 6.578125 C-0.99456676 4.11567549 -0.73638695 2.33461936 0 0 Z " fill="#60BADD" transform="translate(460,674)"/>
<path d="M0 0 C0.33 0.99 0.66 1.98 1 3 C0.67 3.66 0.34 4.32 0 5 C-1.9375 5.5625 -1.9375 5.5625 -4 6 C-4.99 6.495 -4.99 6.495 -6 7 C-6.66 6.34 -7.32 5.68 -8 5 C-4.04 2.525 -4.04 2.525 0 0 Z " fill="#65B9D6" transform="translate(464,318)"/>
<path d="M0 0 C2.88575819 0.39803561 3.82189513 0.79009069 5.75 3.0625 C6.1625 3.701875 6.575 4.34125 7 5 C5.68 5.33 4.36 5.66 3 6 C2.01 4.02 1.02 2.04 0 0 Z " fill="#65BADB" transform="translate(594,286)"/>
<path d="M0 0 C2.64752004 2.57784846 4.94432065 4.91648098 7 8 C6.01 8.495 6.01 8.495 5 9 C1.7457985 6.16569547 0.4793247 4.31392226 0 0 Z " fill="#68BCDB" transform="translate(488,180)"/>
<path d="M0 0 C0 1.32 0 2.64 0 4 C-2.97 4 -5.94 4 -9 4 C-6.43425105 1.43425105 -3.68548192 0 0 0 Z " fill="#67BDDA" transform="translate(218,975)"/>
<path d="M0 0 C0.66 0.33 1.32 0.66 2 1 C1.3125 2.9375 1.3125 2.9375 0 5 C-2.625 5.75 -2.625 5.75 -5 6 C-3.35 4.02 -1.7 2.04 0 0 Z " fill="#59B4D4" transform="translate(51,880)"/>
<path d="M0 0 C1.65 0 3.3 0 5 0 C4.34 1.32 3.68 2.64 3 4 C1.68 4 0.36 4 -1 4 C-0.67 2.68 -0.34 1.36 0 0 Z " fill="#53B4D3" transform="translate(210,872)"/>
<path d="M0 0 C1.2065625 0.0309375 1.2065625 0.0309375 2.4375 0.0625 C2.1075 1.7125 1.7775 3.3625 1.4375 5.0625 C-0.5 4.75 -0.5 4.75 -2.5625 4.0625 C-2.8925 3.0725 -3.2225 2.0825 -3.5625 1.0625 C-2.5625 0.0625 -2.5625 0.0625 0 0 Z " fill="#57B3D4" transform="translate(233.5625,851.9375)"/>
<path d="M0 0 C0 0.66 0 1.32 0 2 C-0.99 2.33 -1.98 2.66 -3 3 C-3.33 3.66 -3.66 4.32 -4 5 C-4.66 4.67 -5.32 4.34 -6 4 C-6 2.68 -6 1.36 -6 0 C-3.50907189 -1.24546405 -2.58919267 -0.7767578 0 0 Z " fill="#55B3D5" transform="translate(244,847)"/>
<path d="M0 0 C0.66 0.33 1.32 0.66 2 1 C-0.25 3.5625 -0.25 3.5625 -3 6 C-5.3125 5.8125 -5.3125 5.8125 -7 5 C-2.25 1.125 -2.25 1.125 0 0 Z " fill="#EEF7F9" transform="translate(219,831)"/>
<path d="M0 0 C0.66 0.66 1.32 1.32 2 2 C0.73058503 5.91402949 -0.51167694 7.79072873 -4 10 C-2.8905928 6.51329166 -1.73662334 3.22515763 0 0 Z " fill="#F0F7FA" transform="translate(313,690)"/>
<path d="M0 0 C2 4 2 4 2 7 C0.35 7.66 -1.3 8.32 -3 9 C-2.01 6.03 -1.02 3.06 0 0 Z " fill="#67BCDE" transform="translate(261,647)"/>
<path d="M0 0 C0 3.19219704 -0.23605791 4.39608549 -2 7 C-4.625 8.25 -4.625 8.25 -7 9 C-6.02180976 7.68677212 -5.0424189 6.37443848 -4.0625 5.0625 C-3.51722656 4.33160156 -2.97195313 3.60070312 -2.41015625 2.84765625 C-1 1 -1 1 0 0 Z " fill="#68BBD6" transform="translate(339,623)"/>
<path d="M0 0 C3.09162264 1.38589981 4.49183541 2.49183541 7 5 C3.7 4.34 0.4 3.68 -3 3 C-2.67 2.34 -2.34 1.68 -2 1 C-1.34 1.33 -0.68 1.66 0 2 C0 1.34 0 0.68 0 0 Z " fill="#63BAD7" transform="translate(709,386)"/>
<path d="M0 0 C1 3 1 3 1 5 C0.01 5.66 -0.98 6.32 -2 7 C-2.99 6.67 -3.98 6.34 -5 6 C-3.35 4.02 -1.7 2.04 0 0 Z " fill="#6DBCDB" transform="translate(517,368)"/>
<path d="M0 0 C0 1.65 0 3.3 0 5 C-2.31 5 -4.62 5 -7 5 C-2.25 0 -2.25 0 0 0 Z " fill="#64B8D8" transform="translate(487,302)"/>
<path d="M0 0 C2.4375 1.0625 2.4375 1.0625 5 3 C5.8125 6.6875 5.8125 6.6875 6 10 C3.61327331 7.03716687 1.2646629 4.05729491 -1 1 C-0.67 0.67 -0.34 0.34 0 0 Z " fill="#68BAD9" transform="translate(579,282)"/>
<path d="M0 0 C3.96 0.33 7.92 0.66 12 1 C12 1.33 12 1.66 12 2 C8.37 2.33 4.74 2.66 1 3 C0.67 2.01 0.34 1.02 0 0 Z " fill="#75C2DE" transform="translate(608,21)"/>
<path d="M0 0 C0.33 0 0.66 0 1 0 C1 3.63 1 7.26 1 11 C0.01 11 -0.98 11 -2 11 C-1.40049704 7.31733897 -0.75241109 3.65456815 0 0 Z " fill="#68BEDC" transform="translate(354,707)"/>
<path d="M0 0 C2 3.75 2 3.75 2 6 C0.02 6 -1.96 6 -4 6 C-1.125 1.125 -1.125 1.125 0 0 Z " fill="#67BBD8" transform="translate(385,642)"/>
<path d="M0 0 C0.99 0 1.98 0 3 0 C1.95125002 2.62187494 1.35068687 3.79371361 -1.125 5.25 C-1.74375 5.4975 -2.3625 5.745 -3 6 C-2.67 4.68 -2.34 3.36 -2 2 C-1.34 2 -0.68 2 0 2 C0 1.34 0 0.68 0 0 Z " fill="#63BAD9" transform="translate(376,539)"/>
<path d="M0 0 C0.66 0.33 1.32 0.66 2 1 C-0.475 5.455 -0.475 5.455 -3 10 C-4.05609899 6.83170302 -4.13055309 6.01480825 -3 3 C-1.4375 1.25 -1.4375 1.25 0 0 Z " fill="#6ABDDC" transform="translate(542,277)"/>
<path d="M0 0 C2 3 2 3 2 6 C1.34 6 0.68 6 0 6 C-0.33 7.32 -0.66 8.64 -1 10 C-2.46726798 6.18510326 -1.43336419 3.70988378 0 0 Z " fill="#70BEDC" transform="translate(519,244)"/>
<path d="M0 0 C0.33 1.32 0.66 2.64 1 4 C-1.4375 6.75 -1.4375 6.75 -4 9 C-4.66 8.67 -5.32 8.34 -6 8 C-4.02 5.36 -2.04 2.72 0 0 Z " fill="#66BAD5" transform="translate(458,230)"/>
<path d="M0 0 C-0.33 1.65 -0.66 3.3 -1 5 C-2.98 5 -4.96 5 -7 5 C-2.25 0 -2.25 0 0 0 Z " fill="#68BAD8" transform="translate(535,86)"/>
<path d="M0 0 C0.66 0.66 1.32 1.32 2 2 C-0.31 4.64 -2.62 7.28 -5 10 C-5 6.60406522 -4.47834052 5.93380119 -2.5 3.3125 C-2.0359375 2.68988281 -1.571875 2.06726563 -1.09375 1.42578125 C-0.7328125 0.95527344 -0.371875 0.48476563 0 0 Z " fill="#79C1D9" transform="translate(22,911)"/>
<path d="M0 0 C0.99 1.32 1.98 2.64 3 4 C2.01 4.99 1.02 5.98 0 7 C0 6.34 0 5.68 0 5 C-0.99 4.67 -1.98 4.34 -3 4 C-2.01 2.68 -1.02 1.36 0 0 Z " fill="#69B9D8" transform="translate(197,885)"/>
<path d="M0 0 C0.33 0 0.66 0 1 0 C0.67 2.97 0.34 5.94 0 9 C-0.99 9 -1.98 9 -3 9 C-2.01 6.03 -1.02 3.06 0 0 Z " fill="#6BBEDD" transform="translate(365,673)"/>
<path d="M0 0 C0.99 0.33 1.98 0.66 3 1 C1.875 2.5 1.875 2.5 0 4 C-3.1875 4.1875 -3.1875 4.1875 -6 4 C-4.03617993 2.49440461 -2.21736634 1.10868317 0 0 Z " fill="#68BDD6" transform="translate(412,623)"/>
<path d="M0 0 C0.99 0.99 1.98 1.98 3 3 C2.01 4.485 2.01 4.485 1 6 C1 5.34 1 4.68 1 4 C-0.65 4 -2.3 4 -4 4 C-2.68 2.68 -1.36 1.36 0 0 Z " fill="#62B8D9" transform="translate(245,597)"/>
<path d="M0 0 C0.66 0.99 1.32 1.98 2 3 C0.02 4.32 -1.96 5.64 -4 7 C-4 4 -4 4 -2 1.8125 C-1.34 1.214375 -0.68 0.61625 0 0 Z " fill="#F1F9F8" transform="translate(365,594)"/>
<path d="M0 0 C3.63 0 7.26 0 11 0 C11 0.33 11 0.66 11 1 C7.7 1.66 4.4 2.32 1 3 C0.67 2.01 0.34 1.02 0 0 Z " fill="#61B9DB" transform="translate(563,546)"/>
<path d="M0 0 C0.33 1.32 0.66 2.64 1 4 C-0.66666667 5.66666667 -2.33333333 7.33333333 -4 9 C-4.66 8.67 -5.32 8.34 -6 8 C-4.02 5.36 -2.04 2.72 0 0 Z " fill="#6DBDD9" transform="translate(494,395)"/>
<path d="M0 0 C0.66 0.33 1.32 0.66 2 1 C0.92598892 3.91517292 0.22189824 5.77810176 -2 8 C-2.33 7.01 -2.66 6.02 -3 5 C-1.5625 2.3125 -1.5625 2.3125 0 0 Z " fill="#65BBDB" transform="translate(445,250)"/>
<path d="M0 0 C0.66 0.33 1.32 0.66 2 1 C2.4140625 3.06640625 2.4140625 3.06640625 2.625 5.5625 C2.69976562 6.38878906 2.77453125 7.21507812 2.8515625 8.06640625 C2.92503906 9.02353516 2.92503906 9.02353516 3 10 C0.9375 7.8125 0.9375 7.8125 -1 5 C-0.75 2.1875 -0.75 2.1875 0 0 Z " fill="#E3F2F6" transform="translate(501,148)"/>
<path d="M0 0 C0.66 0.33 1.32 0.66 2 1 C1.34 3.31 0.68 5.62 0 8 C-0.99 7.67 -1.98 7.34 -3 7 C-1.125 2.25 -1.125 2.25 0 0 Z " fill="#F3F9FB" transform="translate(283,919)"/>
<path d="M0 0 C-1.04874998 2.62187494 -1.64931313 3.79371361 -4.125 5.25 C-4.74375 5.4975 -5.3625 5.745 -6 6 C-5.67 4.35 -5.34 2.7 -5 1 C-2 0 -2 0 0 0 Z " fill="#F6F9F9" transform="translate(113,881)"/>
<path d="M0 0 C0.66 0.33 1.32 0.66 2 1 C1.01 2.32 0.02 3.64 -1 5 C-2.32 4.34 -3.64 3.68 -5 3 C-3 1 -3 1 0 0 Z " fill="#EFF6F9" transform="translate(124,840)"/>
<path d="M0 0 C1.61949011 2.57213134 2.04408751 3.67669159 1.625 6.75 C1.41875 7.4925 1.2125 8.235 1 9 C0.67 8.34 0.34 7.68 0 7 C-0.66 6.67 -1.32 6.34 -2 6 C-1.34 4.02 -0.68 2.04 0 0 Z " fill="#69BBDB" transform="translate(277,745)"/>
<path d="M0 0 C0.33 0 0.66 0 1 0 C0.67 2.64 0.34 5.28 0 8 C-0.99 8 -1.98 8 -3 8 C-1.125 2.25 -1.125 2.25 0 0 Z " fill="#69BBDB" transform="translate(301,680)"/>
<path d="M0 0 C1 3 1 3 0 6 C-1.65 6 -3.3 6 -5 6 C-3.35 4.02 -1.7 2.04 0 0 Z " fill="#6FBEDC" transform="translate(142,666)"/>
<path d="M0 0 C0 0.99 0 1.98 0 3 C-2.64 2.67 -5.28 2.34 -8 2 C-5.14066998 -0.85933002 -3.8625627 -1.2875209 0 0 Z " fill="#6ABDDC" transform="translate(430,618)"/>
<path d="M0 0 C0.33 0.66 0.66 1.32 1 2 C0.22265625 3.7265625 0.22265625 3.7265625 -0.9375 5.625 C-1.618125 6.73875 -2.29875 7.8525 -3 9 C-3.99 8.67 -4.98 8.34 -6 8 C-4.02 5.36 -2.04 2.72 0 0 Z " fill="#6EBAD8" transform="translate(292,597)"/>
<path d="M0 0 C2.475 0.495 2.475 0.495 5 1 C3.625 3 3.625 3 2 5 C1.34 5 0.68 5 0 5 C0 3.35 0 1.7 0 0 Z " fill="#65BBD7" transform="translate(273,589)"/>
<path d="M0 0 C5.875 2.75 5.875 2.75 7 5 C4.03 4.505 4.03 4.505 1 4 C0.67 2.68 0.34 1.36 0 0 Z " fill="#64BAD9" transform="translate(717,410)"/>
<path d="M0 0 C0 0.99 0 1.98 0 3 C-2.31 3.66 -4.62 4.32 -7 5 C-7 4.34 -7 3.68 -7 3 C-2.61538462 0 -2.61538462 0 0 0 Z " fill="#60B8DA" transform="translate(522,26)"/>
</svg>
