<svg width="2151" height="1724" xmlns="http://www.w3.org/2000/svg" xmlns:xlink="http://www.w3.org/1999/xlink" xml:space="preserve" overflow="hidden"><defs><clipPath id="clip0"><rect x="1263" y="309" width="2151" height="1724"/></clipPath></defs><g clip-path="url(#clip0)" transform="translate(-1263 -309)"><path d="M1263 679.194C1263 474.741 1428.74 309 1633.19 309L3043.81 309C3248.26 309 3414 474.741 3414 679.194L3414 1662.81C3414 1867.26 3248.26 2033 3043.81 2033L1633.19 2033C1428.74 2033 1263 1867.26 1263 1662.81Z" fill="#00B050" fill-rule="evenodd" fill-opacity="0.529412"/><g><g><g><path d="M0 136.312C-1.00891e-14 111.218 20.3431 90.875 45.4375 90.875L181.75 90.875C202.605 90.8804 220.777 105.082 225.824 125.317L262.629 272.625 1317.69 272.625C1342.78 272.649 1363.11 293.01 1363.08 318.104 1363.08 320.895 1362.82 323.679 1362.31 326.423L1225.99 1053.42C1221.98 1074.91 1203.23 1090.48 1181.37 1090.5L363.5 1090.5C341.645 1090.48 322.902 1074.91 318.88 1053.42L182.659 327.786 146.309 181.75 45.4375 181.75C20.3431 181.75-5.04458e-15 161.407-5.04458e-15 136.312M281.894 363.5 401.213 999.625 1143.66 999.625 1262.98 363.5ZM454.375 1090.5C353.997 1090.5 272.625 1171.87 272.625 1272.25 272.625 1372.63 353.997 1454 454.375 1454 554.753 1454 636.125 1372.63 636.125 1272.25 636.125 1171.87 554.753 1090.5 454.375 1090.5M1090.5 1090.5C990.119 1090.5 908.75 1171.87 908.75 1272.25 908.75 1372.63 990.119 1454 1090.5 1454 1190.88 1454 1272.25 1372.63 1272.25 1272.25 1272.25 1171.87 1190.88 1090.5 1090.5 1090.5M454.375 1181.37C504.563 1181.37 545.25 1222.06 545.25 1272.25 545.25 1322.44 504.563 1363.12 454.375 1363.12 404.186 1363.12 363.5 1322.44 363.5 1272.25 363.5 1222.06 404.186 1181.37 454.375 1181.37M1090.5 1181.37C1140.69 1181.37 1181.37 1222.06 1181.37 1272.25 1181.37 1322.44 1140.69 1363.12 1090.5 1363.12 1040.31 1363.12 999.625 1322.44 999.625 1272.25 999.625 1222.06 1040.31 1181.37 1090.5 1181.37" fill="#00B050" transform="matrix(1.00069 0 0 1 1611 444)"/></g></g></g></g></svg>